<?xml version="1.0" encoding="UTF-8"?>
<svg id="Layer_1" data-name="Layer 1" xmlns="http://www.w3.org/2000/svg" viewBox="0 0 596.25 372.75">
  <defs>
    <style>
      .cls-1 {
        fill: #050303;
      }

      .cls-1, .cls-2, .cls-3, .cls-4, .cls-5, .cls-6, .cls-7, .cls-8, .cls-9, .cls-10, .cls-11, .cls-12, .cls-13, .cls-14, .cls-15, .cls-16, .cls-17, .cls-18, .cls-19, .cls-20, .cls-21, .cls-22, .cls-23, .cls-24, .cls-25, .cls-26, .cls-27, .cls-28 {
        stroke-width: 0px;
      }

      .cls-2 {
        fill: #030303;
      }

      .cls-3 {
        fill: #060403;
      }

      .cls-4 {
        fill: #fdfdfd;
      }

      .cls-5 {
        fill: #0b0b0b;
      }

      .cls-6 {
        fill: #ea7022;
      }

      .cls-7 {
        fill: #1f1914;
      }

      .cls-8 {
        fill: #fafafa;
      }

      .cls-9 {
        fill: #050301;
      }

      .cls-10 {
        fill: #f9f8f7;
      }

      .cls-11 {
        fill: #e97227;
      }

      .cls-12 {
        fill: #e67024;
      }

      .cls-13 {
        fill: #020202;
      }

      .cls-14 {
        fill: #e77024;
      }

      .cls-15 {
        fill: #090501;
      }

      .cls-16 {
        fill: #e06b20;
      }

      .cls-17 {
        fill: #e96f21;
      }

      .cls-18 {
        fill: #080808;
      }

      .cls-19 {
        fill: #d9d9d9;
      }

      .cls-20 {
        fill: #0f0a07;
      }

      .cls-21 {
        fill: #f6f6f6;
      }

      .cls-22 {
        fill: #ae7a59;
      }

      .cls-23 {
        fill: #e1202d;
      }

      .cls-24 {
        fill: #eae8e6;
      }

      .cls-25 {
        fill: #f8f7f7;
      }

      .cls-26 {
        fill: #e86f21;
      }

      .cls-27 {
        fill: #0c0c0c;
      }

      .cls-28 {
        fill: #fcfcfc;
      }
    </style>
  </defs>
  <path class="cls-4" d="M511.61,0c28.21,0,56.43,0,84.64,0v372.75H0C0,248.5,0,124.25,0,0c35.21,0,70.41,0,105.62,0-3.92,1.96-7.87,3.87-11.76,5.89-19.29,10.01-23.06,41.05-8.32,54.9,3.36,3.16,6.36,6.73,9.81,9.78,13.46,11.9,27.06,23.65,40.58,35.49,3.61,3.16,7.13,6.42,11.16,10.05-4.1,1.36-7.52,2.36-10.84,3.62-22.65,8.65-42.67,21.62-60.63,37.77-25.73,23.14-46.38,50.03-59.35,82.39-6.54,16.32-9.98,33.09-5.81,50.68,4.97,20.94,17.08,35.39,38.09,41.48,13.51,3.92,27.42,4.75,41.11,2.02,16.8-3.34,33.56-7.22,49.97-12.09,23.23-6.89,46.14-14.89,69.19-22.4,1.66-.54,3.39-.87,5.58-1.43-4.3,7.96-11.69,13.66-19.47,16.23-3.11,1.03-6.11,2.86-8.7,4.9-4.82,3.79-5.75,9.29-4.73,14.91,1.01,5.53,4.13,9.56,9.93,11.29,8.12,2.42,18.22-1.59,21.22-8.13,1.93-4.21,4.24-8.6,7.47-11.8,11.26-11.15,22.96-21.87,34.58-32.66,5.85-5.43,12.97-8.25,20.81-9.36,2.72-.38,5.42-.88,8.14-1.18,8.8-.98,17.6-1.98,26.41-2.79,3.81-.35,6.94.8,9.18,4.4,6.51,10.47,16.14,16.87,27.94,19.77,10.15,2.49,20.51,4.11,30.66,6.6,10.27,2.52,11.47,4.61,12.49,15.07.44,4.56,1.03,9.44,5.79,12.11.91.74,1.81,1.48,2.72,2.23,2.65,1.29,5.17,3.09,7.97,3.76,5.31,1.27,9.87,5.31,16.2,3.15,8.97-3.07,15.04-7.87,12.28-19.71-1.57-6.77-5.96-10.98-12.41-12.11.35-6.22.68-12.08,1.01-18.07,2.37.4,5.07.79,7.74,1.32,40.81,8.07,80.89,5.12,120.25-8.08,12.19-4.09,23.81-9.48,34.52-16.71,6.43-4.34,9.47-10.25,7.93-17.93-2.32-11.58-11.35-15.81-23.87-10.97.51-1.6.86-2.85,1.3-4.07,1.04-2.92,2.32-5.77,3.14-8.74,2.51-9.08-1.89-18.44-10.29-21.24-2.98-.99-3.93-2.66-4.02-5.37-.05-1.37-.02-2.75-.04-4.12-.19-11.76-6.11-19.72-17.43-23.18-11.01-3.37-21.82-2.66-32.41,1.83-8.21,3.48-16.39,7.06-24.67,10.37-3.71,1.48-5.05.69-5.02-3.21.05-5.68-2.87-9.47-7.05-12.45-13.6-9.68-28.9-12.82-45.26-10.95-5.84.67-11.58,2.2-17.36,3.33-.24-.28-.48-.56-.72-.84.59-.24,1.29-.36,1.75-.75,29.25-25.12,58.53-50.21,87.69-75.44,10.66-9.23,21.22-18.59,31.45-28.3,6.98-6.62,10.51-15.22,9.82-24.9-1.09-15.29-8.34-26.57-22.8-32.71-2.4-1.02-4.64-2.42-6.96-3.65Z"/>
  <path class="cls-3" d="M396.13,337.51c-4.76-2.67-5.35-7.55-5.79-12.11-1.01-10.46-2.22-12.55-12.49-15.07-10.15-2.49-20.51-4.11-30.66-6.6-11.8-2.9-21.43-9.3-27.94-19.77-2.24-3.6-5.37-4.75-9.18-4.4-8.81.81-17.61,1.81-26.41,2.79-2.72.3-5.43.8-8.14,1.18-7.84,1.11-14.96,3.93-20.81,9.36-11.62,10.78-23.32,21.5-34.58,32.66-3.23,3.2-5.54,7.59-7.47,11.8-3,6.54-13.1,10.55-21.22,8.13-5.8-1.73-8.93-5.76-9.93-11.29-1.02-5.62-.09-11.12,4.73-14.91,2.6-2.04,5.59-3.87,8.7-4.9,7.78-2.57,15.18-8.27,19.47-16.23-2.19.55-3.92.89-5.58,1.43-23.05,7.5-45.96,15.51-69.19,22.4-16.42,4.87-33.17,8.75-49.97,12.09-13.7,2.72-27.6,1.89-41.11-2.02-21.02-6.09-33.13-20.54-38.09-41.48-4.17-17.59-.73-34.36,5.81-50.68,12.97-32.36,33.62-59.24,59.35-82.39,17.96-16.16,37.98-29.12,60.63-37.77,3.32-1.27,6.74-2.26,10.84-3.62-4.03-3.63-7.55-6.89-11.16-10.05-13.52-11.83-27.11-23.59-40.58-35.49-3.45-3.05-6.44-6.62-9.81-9.78-14.74-13.85-10.96-44.89,8.32-54.9,3.89-2.02,7.84-3.93,11.76-5.89,5.74,0,11.49,0,17.23,0,5.59,4.5,11.61,8.57,16.69,13.59,14.74,14.57,29.11,29.53,43.62,44.33.84.86,1.74,1.67,2.85,2.73,3.22-7.13,7.83-12.72,13.57-17.45,12.02-9.91,25.66-16.51,40.81-19.83,6.55-1.44,11.61-4.04,14.89-10.36,4.2-8.1,11.18-11.67,20.54-11.54,21.97.3,43.94.23,65.91.07,9.18-.07,16.71,3.03,20.53,11.47,3.1,6.84,8.47,8.96,14.89,10.23.12.02.25.01.37.04,20.54,4.73,37.9,14.63,50.99,31.48,3.28,4.22,3.34,4.24,7.27.76,2.15-1.9,4.2-3.92,6.19-5.99,6.93-7.2,13.73-14.52,20.73-21.66C472.7,17.67,482.48,7.16,495.13,0,500.62,0,506.11,0,511.61,0c2.31,1.23,4.55,2.63,6.96,3.65,14.45,6.14,21.71,17.42,22.8,32.71.69,9.68-2.84,18.28-9.82,24.9-10.22,9.71-20.79,19.07-31.45,28.3-29.16,25.23-58.44,50.32-87.69,75.44-.46.39-1.16.51-1.75.75.24.28.48.56.72.84,5.78-1.14,11.52-2.67,17.36-3.33,16.36-1.87,31.67,1.27,45.26,10.95,4.18,2.98,7.1,6.77,7.05,12.45-.03,3.9,1.31,4.69,5.02,3.21,8.28-3.31,16.46-6.89,24.67-10.37,10.59-4.49,21.4-5.2,32.41-1.83,11.32,3.47,17.24,11.42,17.43,23.18.02,1.37,0,2.75.04,4.12.09,2.71,1.04,4.38,4.02,5.37,8.4,2.8,12.8,12.16,10.29,21.24-.82,2.98-2.1,5.83-3.14,8.74-.44,1.22-.79,2.47-1.3,4.07,12.51-4.84,21.55-.61,23.87,10.97,1.54,7.69-1.5,13.6-7.93,17.93-10.71,7.23-22.33,12.62-34.52,16.71-39.36,13.2-79.44,16.16-120.25,8.08-2.67-.53-5.37-.92-7.74-1.32-.34,5.98-.66,11.85-1.01,18.07,6.45,1.13,10.83,5.34,12.41,12.11,2.75,11.83-3.31,16.64-12.28,19.71-6.34,2.16-10.89-1.87-16.2-3.15-2.8-.67-5.32-2.47-7.97-3.76,1.48.06,3.1-.26,4.43.24,5.7,2.11,9.88-.7,13.85-4.08.87-.74,1.2-2.12,1.95-3.54-1.05,0-1.49-.14-1.73.02-6.79,4.31-12.02,1.51-16.78-3.61-2.41-2.59-4.86-5.16-7.62-8.08-1.55,6.77.82,11.8,3.18,16.83ZM414.86,324.13c-3.32-1.96-6.63-3.92-9.91-5.86.07-.43.37-1.47.29-2.49-.02-.29-1.32-.83-1.82-.65-2.02.72-1.97.78-3.36-.2-2.89-2.06-5.95-3.67-9.89-3.11,4.31,4.73,8.76,9.23,13.5,13.4,8.59,7.57,10.55,7.32,17.84-1.68.07-.08.05-.24.16-.95-4.3-3.45-8.83-7.08-13.35-10.7-.42.43-.85.87-1.27,1.3,2.85,3.47,5.69,6.93,8.54,10.4-.24.19-.48.37-.71.56ZM301.82,101.81c3.47,6.04,6.94,12.08,10.81,18.8.99-1.47,2.49-2.69,2.52-3.94.05-2.77-.39-5.62-1.08-8.33-.82-3.19-2.12-6.25-3.21-9.36.37.44.81.84,1.11,1.32,3.25,5.18,6.43,5.33,9.95.42.79-1.11,1.6-2.26,2.12-3.51,2.65-6.28,5.71-12.44,7.64-18.94,1.53-5.16,1.7-10.74,2.31-16.16.12-1.03-.17-2.54-.87-3.12-1.4-1.17-3.2-2.48-4.86-2.52-1.12-.03-2.81,1.81-3.32,3.16-.68,1.77-.56,3.89-.6,5.86-.16,8.33-2.58,19.16-5.72,24.07-.64-3.28-1.06-6.03-1.74-8.71-.69-2.73-1.03-5.75-4.55-7.79.26,4.8.49,8.94.71,13.09-1.34-1.46-2.67-2.92-4.01-4.38-1.57,1.49-3.9,2.7-4.55,4.51-1.49,4.11-2.15,8.51-3.14,12.8-.21-.1-.56-.15-.63-.31-4.84-12.27-7.59-25.07-9.27-38.11-.37-2.86-2.75-5.4-5.54-5.05-2.99.37-4.36,2.39-4.03,5.28,1.5,13.39,4.79,26.31,11.04,38.31.97,1.86,2.79,3.53,4.61,4.64,1.84,1.11,3.97.98,4.33-2.02ZM226.83,294.61c-4.44,3.77-9.03,7.39-13.3,11.35-6.95,6.43-13.89,12.9-20.46,19.71-4.15,4.3-2.64,9.12,3.16,10.7,2.23.61,4.82-.06,7.25-.23,1.73-.12,3.45-.39,4.37-.5,2.35-3.47,4.19-7.34,7.05-10.18,10.77-10.73,21.88-21.12,32.85-31.65,1.23-1.18,2.35-2.47,3.64-3.84-6.08-2.15-11.29.28-16.14,5.86-6.1,7.01-12.8,13.5-19.24,20.22-.17-.17-.33-.34-.5-.51.34-.87.68-1.75,1.02-2.62-.23-.14-.47-.29-.7-.43-4.44,3.68-8.88,7.37-13.32,11.05-.27-.24-.54-.48-.82-.72,1-1.11,1.98-2.24,2.99-3.34,7.55-8.13,15.1-16.25,22.65-24.37.07-.29.15-.59.22-.88-.25.13-.5.26-.74.4ZM162.98,68.46c1.8,1.73,3.69,3.37,5.38,5.2,17.34,18.82,34.62,37.69,51.97,56.5,5.22,5.66,8.39,12.23,9.65,19.81.42,2.56,1.21,5.05,1.84,7.64,8.45-4.46,5.23-9.74,1.1-15.12.44-.08.88-.16,1.33-.24,2.48,1.9,4.95,3.81,7.43,5.71.4-.41.81-.82,1.21-1.23l-23.04-28.2c.26-.23.52-.47.77-.7.82.79,1.69,1.53,2.46,2.36,6.27,6.78,12.49,13.61,18.82,20.33,1.23,1.31,2.7,2.67,4.73.76,1.76-1.65,2.72-3.24,1.02-5.43-1.75-2.26-3.39-4.63-5.31-6.76-18.64-20.67-37.02-41.6-56.09-61.87-18.22-19.36-37.04-38.17-55.95-56.86-3.16-3.13-7.88-5.31-12.26-6.45-8.7-2.25-16.12,1.75-23.35,6.31-16.71,10.53-20.61,35.96-4.6,49.77,11.14,9.61,21.49,20.15,32.55,29.86,8.51,7.48,17.52,14.39,26.42,21.41,1.79,1.41,4.08,2.18,6.14,3.24l1.2-1.61c-1.04-.65-2.17-1.2-3.1-1.98-10.71-8.96-21.52-17.81-32.03-27.01-7.12-6.23-13.93-12.84-20.6-19.57-1.24-1.25-2.13-4.41-1.41-5.71,1.58-2.83,4.43-1.38,6.48-.05,3.23,2.09,6.38,4.36,9.32,6.84,13.53,11.42,26.82,23.14,40.54,34.34,5.11,4.17,10.96,7.58,16.86,10.58,2.68,1.36,6.31.84,9.5,1.23,4.67.57,9.34,1.18,14.93,1.89-1.55-1.89-2.38-2.95-3.26-3.97-5.92-6.92-12.11-13.62-17.69-20.8-4.86-6.25-9.05-13.03-13.54-19.57.19-.23.38-.45.58-.68ZM428.85,129.25c-1.38.55-2.73,1.16-4.13,1.63-7.61,2.58-15.18,5.41-23.44,4.87-3.24-.21-3.78-1.26-2.14-3.98.45-.74.9-1.5,1.47-2.15,17.17-19.78,34.35-39.56,51.54-59.31.78-.9,1.78-1.61,2.68-2.41l.99.75c-2.81,4.13-5.29,8.55-8.49,12.35-12.12,14.41-24.49,28.62-36.73,42.94-1.22,1.42-2.23,3.02-3.34,4.54,2.33.32,4.2.15,5.82-.59,6.97-3.18,14.04-6.21,20.76-9.86,22.71-12.32,42.14-29.02,61.2-46.25,5.52-4.99,11.67-9.29,17.71-13.66,1.01-.73,3.96-.71,4.2-.2.68,1.46,1.1,3.75.38,5-1.6,2.76-3.67,5.39-6.05,7.52-7.51,6.76-15.2,13.32-22.9,19.85-21.69,18.39-43.47,36.69-65.14,55.11-8.18,6.95-16.19,14.08-24.18,21.25-1.3,1.17-2.05,2.95-3.06,4.45.34.29.67.58,1.01.87,1.4-.92,2.89-1.72,4.18-2.78,4.64-3.78,9.26-7.6,13.81-11.49,28.37-24.22,56.83-48.34,85.02-72.77,10.36-8.97,20.31-18.46,29.93-28.22,2.97-3.01,5.29-7.49,6.13-11.66,3.59-17.85-4.19-32.15-20.97-39.11-10.08-4.18-19.79-4.43-28.29,4.09-5.9,5.92-12.55,11.12-18.2,17.26-36.22,39.29-72.27,78.75-108.36,118.17-3.94,4.3-7.78,8.69-11.73,13.12,7.56,3.36,8.07,3.27,13.43-2.33.26-.27.52-.54.77-.82,10.18-11.33,20.36-22.66,30.55-33.99.75-.83,1.58-1.59,2.38-2.39l.77.74c-10.1,12.92-21.82,24.58-30.86,38.35,1.95-1.08,3.45-2.55,5-3.97,4.04-3.68,8.1-7.34,12.15-11.01.16.16.33.31.52.43-3,4.81-6.01,9.62-9.59,15.35,2.35.13,3.77.51,5.04.23,13.5-2.99,25.49-9.43,36.79-17.06,5.07-3.42,9.28-8.12,13.88-12.24.13-.23.26-.46.4-.7-.31.02-.61.03-.92.05ZM212.03,87.13c-.09.96-.63,2.26-.2,2.82,3.01,3.91,6.23,7.67,9.39,11.5,2.97-1.48,5.41-2.71,7.86-3.92,13.18-6.47,26.98-11.02,41.5-13.23,6.3-.96,7.23-.27,8.86,5.63.3,1.07.76,2.13.87,3.22.1,1.01-.15,2.05-.25,3.07-1.04-.16-2.11-.2-3.1-.51-1.77-.55-3.44-1.68-5.22-1.85-15.91-1.46-30.93,2.37-45.6,8.04-2.31.89-2.83,2.42-1.06,4.27,2.92,3.04,5.96,5.98,8.73,8.74,3.62-1.79,6.81-3.89,10.32-5.01,11.13-3.57,22.36-6.82,33.61-9.98.71-.2,2.68,1.38,2.82,2.31.39,2.64.14,5.38.14,8.74-6.6,0-12.88-.55-19.01.14-7.26.81-14.41,2.61-21.56,4.2-1.02.23-2.51,1.63-2.54,2.53-.15,4.79,6.23,9.66,10.86,8.38,4.08-1.12,8.03-2.71,12.11-3.79,5.63-1.49,11.28-3.22,17.03-3.88,6.66-.76,9.06-2.8,9.32-9.48.48-11.93-2.07-23.3-7.13-33.93-5.93-12.44-12.6-24.53-18.9-36.79-.92-1.78-1.54-3.72-2.3-5.58,1.92.56,3.19,1.52,4.32,2.61,7.08,6.85,15.25,12.07,24.19,16.07,5.31,2.37,10.72,3.84,16.61,1.28,2.02-.88,4.81-1.06,6.92-.45,7.54,2.2,14.78,1.32,22.02-1.11,1.41-.47,3.63-.4,4.15-1.33,3.42-6.05,10.22-7.76,14.89-12.13,1.83-1.72,3.8-3.29,5.71-4.93.25.2.49.4.74.6-1.14,2.28-2.3,4.55-3.42,6.83-6.01,12.29-12.16,24.5-17.94,36.89-3.59,7.69-6.04,15.8-5.72,24.46.47,12.69.73,25.4,1.68,38.06.4,5.37,2.01,10.73,3.69,15.9,1.86,5.72,3.87,6.16,8.07,1.99,3.8-3.77,7.23-7.92,10.73-11.99.85-.98,1.32-2.28,2.39-4.19-2.37-.44-4.11-.84-5.88-1.08-2.71-.36-5.52-.25-8.11-.99-1.95-.56-5.31.42-5.18-3.12.01-.35,4.17-1.13,6.19-.7,5.67,1.2,11.23,2.94,16.59,4.39,2.56-3.1,4.98-6.03,7.39-8.94-5.67-4.28-12.18-4.34-18.67-4.86-3.92-.32-7.82-1.28-11.62-2.32-.88-.24-2.12-2.34-1.84-2.99.53-1.24,1.94-2.62,3.19-2.88,1.43-.29,3.16.44,4.66.98,6.22,2.21,12.39,4.54,18.6,6.78,7.09,2.56,10.03,1.64,14.46-4.4,1.66-2.26,1.6-4.3-1.12-5.49-11.27-4.92-23.01-7.19-35.34-6.11-1.33.12-3.67-.04-3.89-.67-.8-2.24-1.08-4.74-1.03-7.13,0-.32,3.13-1.05,4.67-.79,13.2,2.28,25.86,6.39,37.97,12.1,2.22,1.05,4.02,1.33,5.79-.32,2.72-2.53,5.32-5.19,8.2-8.01-9.09-5.43-17.99-8.56-27.42-10.02-9.49-1.47-19.02-2.26-29.42,1.6.81-4.19,1.46-7.52,2.09-10.86.44-2.31,1.9-2.65,3.88-2.13,4.22,1.1,8.54,1.89,12.64,3.33,12.21,4.3,24.31,8.89,36.49,13.27,1.22.44,3.23.77,3.98.12,4.01-3.49,7.74-7.31,12.08-11.51-21.3-12.03-42.39-18.76-66.12-9.3,3.45-12.48,7.61-15.09,19.07-12.68.85.18,1.71.35,2.55.58,16.08,4.35,31.51,10.2,44.95,19.69,5.84-6.12,11.59-12,17.17-18.03,4.31-4.65,4.33-5.49.51-10.53-13.23-17.44-30.81-27.85-52.32-31.12-6.73-1.02-10.29-4.49-13.18-10.04-1.61-3.09-3.73-6.59-6.58-8.19-3.26-1.83-7.58-2.38-11.45-2.42-20.22-.22-40.44-.28-60.66-.05-16.13.18-13.3-2.95-25.68,12.73-.15.2-.43.36-.48.57-1.13,5.16-5.5,5.61-9.47,6.25-13.54,2.2-25.79,7.52-37.04,15.21-8.33,5.7-15.67,12.41-19.62,22.04-.41,1-.42,2.83.21,3.51,5.44,5.85,10.92,11.68,16.74,17.15,1.47,1.38,4.18,1.45,6.32,2.12.03.34.07.69.1,1.03ZM212.35,185.03c1.59-3.79,3-7.22,4.46-10.63,3.58-8.39,5.91-17.14,3.57-26.14-3.74-14.37-13.7-22.44-28.01-25.26-17.4-3.43-34.34-.74-50.78,4.99-22.79,7.94-42.64,21.08-60.97,36.54-26.51,22.36-46.08,49.69-57.59,82.53-4.63,13.2-7.26,26.73-4.25,40.81,4.68,21.92,17.89,35.39,38.78,38.85,13.09,2.17,26.13.69,39.07-1.67,23.71-4.33,46.71-11.35,69.58-18.77,20.38-6.6,40.45-14.18,60.95-20.34,25.97-7.8,52.65-12.61,79.73-14.13,15.28-.86,30.68-.44,45.97.31,16.89.83,33.12,5.67,49.32,10.24,16.7,4.72,33.46,9.32,50.9,9.76,17.96.45,35.94.2,53.91.07,3.59-.02,7.33-.35,10.72-1.41,15.32-4.8,30.66-9.59,45.72-15.1,5.98-2.19,11.38-6.08,16.85-9.51,3.45-2.16,4.41-6.04,3.01-9.54-1.43-3.58-4.49-3.51-7.55-3.26-1.36.11-2.75.28-4.04.68-19.4,6.02-39.34,7.86-59.51,7.43-28.8-.61-57.16-4.33-84.75-12.98-6.35-1.99-12.68-4.06-19.01-6.09.04-.4.08-.79.13-1.19,3.24-.7,6.46-1.82,9.72-1.97,2.53-.11,5.19.76,7.65,1.6,2.92.99,5.64,3.33,8.53,3.48,7.41.38,14.89.2,22.3-.4,5.38-.43,10.17-.4,14.9,2.97,3.36,2.39,7.52,4,11.56,5.01,18.93,4.72,38.08,3.85,57.28,1.9,13.09-1.33,19.59-9.7,23.21-21.24,1.27-4.04,1.6-8.22-1.17-11.81-.85-1.1-3.06-2.47-3.84-2.08-6.34,3.12-13,1.57-19.53,1.77-1.12.03-2.26-.35-4.46-.72,2.52-1.58,3.99-2.75,5.64-3.5,8.6-3.89,10.25-10.36,8.74-20.01-.77-4.89-3.96-7.92-8.71-9.28-5.99-1.72-12.12-2.36-18.06-.33-10.83,3.7-21.56,7.7-32.27,11.74-8.23,3.1-16.36,6.46-24.53,9.7-.17-.27-.35-.55-.52-.82.99-1.37,2.03-2.72,2.98-4.12,6.29-9.31,5.39-17.93-3.94-23-7.15-3.89-15.37-7.38-23.32-7.92-16.74-1.15-32.65,2.87-46.12,13.86-1.19.97-2.63,1.62-4.69,2.85-.2-2.5-.4-4.16-.45-5.83-.23-7.64-7.38-15.05-14.98-14.83-4.29.13-8.6,1.11-12.79,2.14-3.88.96-6.88,2.16-11.62.47-8.09-2.88-17.2-2.37-24.17,4.4-4.38,4.25-8.31,8.95-12.4,13.49-2.1,2.34-4.1,4.77-6.09,7.09-1.94-4.57-3.13-8.98-5.51-12.6-3.08-4.68-3.5-4.41.77-8.23,1.12-1,2.52-1.76,3.39-2.93,3.71-5.03,8.06-9.8,10.63-15.38,2.04-4.43,2.29-9.87,2.56-14.91.48-8.92-6.99-16.76-15.98-17.14-9.92-.42-19.49,1.19-27.9,6.74-6.13,4.04-12.21,8.28-17.73,13.1-11.63,10.14-21.53,21.8-29.22,35.3-4.06,7.13-5.23,7.4-12.82,5.62-.83-.2-1.71-.2-3.23-.37ZM335.11,279.73c-2.62,0-5.26-.22-7.85.07-1.99.23-3.91,1.11-5.87,1.7.8,2.13,1.22,4.54,2.51,6.31,1.51,2.06,3.56,3.98,5.79,5.23,5.4,3.04,10.78,6.48,16.62,8.31,16.35,5.12,33.27,7.35,50.34,8.44,6.16.39,12.51-.1,17.71,4.44,1.85,1.62,3.16.05,3.44-1.68.51-3.18.79-6.42.87-9.65.15-5.93-.11-6.4-5.74-8.36-25.2-8.79-51.01-14.46-77.82-14.8ZM270.69,46.39c.48,7.18,3.11,12.78,8.14,17.74,1.36-7.08-2.46-15.5-8.14-17.74ZM348.07,47.39c-.32-.24-.63-.48-.95-.72-8.5,1.89-11.14,8.17-7.22,14.86,2.92-5.06,5.55-9.6,8.17-14.14ZM406.52,153.13c-.32-.47-.64-.94-.96-1.42-4.47,2.71-9.02,5.29-13.34,8.22-.92.62-1.75,2.84-1.33,3.67.97,1.93,2.94,1.61,4.38.28,3.81-3.52,7.5-7.15,11.24-10.74ZM263.6,127.09c-.29-.44-.58-.87-.88-1.31-3.91,1.07-7.86,2.01-11.68,3.33-.77.26-1.74,2.45-1.43,2.88.98,1.34,1.34,4.7,3.99,3.01,3.56-2.27,6.69-5.23,10-7.9ZM186.63,336.6c2.54,7.49,13.01,9.56,19.13,3.13-7.89,4.07-13.54.84-19.13-3.13ZM432.39,333.6c-.22,0-.43,0-.65,0-2.28,2.23-4.28,4.94-6.94,6.54-2.67,1.61-6,2.12-9.79,3.35,4.67,1.15,12.12-1.47,14.94-4.99,1.11-1.39,1.63-3.25,2.43-4.9Z"/>
  <path class="cls-4" d="M495.13,0c-12.64,7.16-22.42,17.67-32.43,27.88-6.99,7.14-13.8,14.46-20.73,21.66-1.99,2.07-4.04,4.08-6.19,5.99-3.93,3.48-3.99,3.46-7.27-.76-13.09-16.85-30.45-26.75-50.99-31.48-.12-.03-.25-.02-.37-.04-6.42-1.27-11.79-3.39-14.89-10.23-3.82-8.44-11.35-11.53-20.53-11.47-21.97.16-43.94.23-65.91-.07-9.36-.13-16.34,3.45-20.54,11.54-3.28,6.32-8.34,8.92-14.89,10.36-15.15,3.32-28.79,9.93-40.81,19.83-5.74,4.73-10.35,10.32-13.57,17.45-1.11-1.06-2-1.87-2.85-2.73-14.52-14.8-28.88-29.76-43.62-44.33C134.46,8.57,128.44,4.5,122.85,0c124.09,0,248.19,0,372.28,0Z"/>
  <path class="cls-12" d="M396.13,337.51c-2.36-5.03-4.73-10.06-3.18-16.83,2.76,2.92,5.21,5.49,7.62,8.08,4.76,5.12,9.99,7.92,16.78,3.61.25-.16.68-.02,1.73-.02-.75,1.42-1.08,2.8-1.95,3.54-3.97,3.38-8.15,6.19-13.85,4.08-1.32-.49-2.94-.18-4.43-.24-.91-.74-1.81-1.48-2.72-2.23Z"/>
  <path class="cls-17" d="M211.93,86.09c-2.14-.67-4.85-.74-6.32-2.12-5.82-5.47-11.3-11.3-16.74-17.15-.63-.68-.62-2.5-.21-3.51,3.94-9.63,11.28-16.34,19.62-22.04,11.25-7.69,23.49-13.02,37.04-15.21,3.97-.64,8.34-1.09,9.47-6.25.05-.21.32-.37.48-.57,12.38-15.68,9.56-12.55,25.68-12.73,20.22-.22,40.44-.17,60.66.05,3.87.04,8.19.59,11.45,2.42,2.85,1.6,4.97,5.09,6.58,8.19,2.89,5.56,6.44,9.02,13.18,10.04,21.51,3.27,39.09,13.67,52.32,31.12,3.83,5.04,3.8,5.88-.51,10.53-5.58,6.03-11.33,11.91-17.17,18.03-13.45-9.49-28.88-15.34-44.95-19.69-.84-.23-1.7-.4-2.55-.58-11.46-2.41-15.63.2-19.07,12.68,23.74-9.45,44.83-2.72,66.12,9.3-4.34,4.21-8.07,8.02-12.08,11.51-.75.65-2.75.32-3.98-.12-12.18-4.37-24.29-8.97-36.49-13.27-4.1-1.44-8.42-2.23-12.64-3.33-1.98-.52-3.45-.17-3.88,2.13-.63,3.33-1.28,6.66-2.09,10.86,10.4-3.86,19.93-3.07,29.42-1.6,9.43,1.46,18.33,4.59,27.42,10.02-2.87,2.82-5.48,5.48-8.2,8.01-1.77,1.65-3.57,1.37-5.79.32-12.11-5.71-24.77-9.83-37.97-12.1-1.54-.27-4.66.47-4.67.79-.05,2.39.23,4.89,1.03,7.13.22.62,2.56.78,3.89.67,12.33-1.07,24.07,1.19,35.34,6.11,2.72,1.19,2.78,3.23,1.12,5.49-4.43,6.04-7.38,6.96-14.46,4.4-6.21-2.24-12.38-4.57-18.6-6.78-1.51-.54-3.23-1.27-4.66-.98-1.26.26-2.66,1.64-3.19,2.88-.28.66.96,2.75,1.84,2.99,3.81,1.04,7.7,2,11.62,2.32,6.49.52,13,.59,18.67,4.86-2.4,2.91-4.83,5.84-7.39,8.94-5.36-1.46-10.92-3.19-16.59-4.39-2.02-.43-6.18.35-6.19.7-.13,3.54,3.23,2.56,5.18,3.12,2.59.74,5.4.64,8.11.99,1.76.23,3.51.64,5.88,1.08-1.07,1.91-1.54,3.21-2.39,4.19-3.5,4.06-6.93,8.22-10.73,11.99-4.21,4.17-6.21,3.73-8.07-1.99-1.68-5.16-3.28-10.53-3.69-15.9-.95-12.66-1.21-25.37-1.68-38.06-.32-8.66,2.14-16.77,5.72-24.46,5.78-12.39,11.93-24.61,17.94-36.89,1.12-2.29,2.28-4.56,3.42-6.83-.25-.2-.49-.4-.74-.6-1.91,1.64-3.88,3.22-5.71,4.93-4.67,4.38-11.47,6.09-14.89,12.13-.52.93-2.75.85-4.15,1.33-7.24,2.44-14.48,3.31-22.02,1.11-2.11-.62-4.9-.43-6.92.45-5.89,2.57-11.3,1.1-16.61-1.28-8.94-4-17.11-9.22-24.19-16.07-1.13-1.1-2.4-2.05-4.32-2.61.76,1.86,1.38,3.8,2.3,5.58,6.3,12.27,12.97,24.35,18.9,36.79,5.07,10.63,7.61,22,7.13,33.93-.27,6.68-2.66,8.72-9.32,9.48-5.75.66-11.4,2.39-17.03,3.88-4.09,1.08-8.04,2.66-12.11,3.79-4.64,1.28-11.01-3.59-10.86-8.38.03-.9,1.52-2.3,2.54-2.53,7.15-1.59,14.31-3.38,21.56-4.2,6.14-.69,12.41-.14,19.01-.14,0-3.36.26-6.1-.14-8.74-.14-.94-2.1-2.51-2.82-2.31-11.25,3.16-22.48,6.41-33.61,9.98-3.51,1.12-6.7,3.22-10.32,5.01-2.77-2.76-5.8-5.7-8.73-8.74-1.78-1.85-1.25-3.38,1.06-4.27,14.67-5.67,29.69-9.5,45.6-8.04,1.78.16,3.46,1.3,5.22,1.85.99.31,2.06.35,3.1.51.1-1.03.36-2.07.25-3.07-.11-1.09-.57-2.14-.87-3.22-1.63-5.9-2.56-6.59-8.86-5.63-14.52,2.22-28.32,6.76-41.5,13.23-2.45,1.2-4.89,2.43-7.86,3.92-3.17-3.83-6.38-7.59-9.39-11.5-.43-.56.11-1.86.2-2.82,20.08-10.98,40.65-18.07,64.54-7.82-2.05-3.75-3.64-7-5.55-10.06-1.98-3.17-4.92-4.53-8.67-3.46-8.84,2.51-17.8,4.66-26.46,7.69-8.55,2.99-17.03,6.42-23.96,12.63ZM403.69,64.55c.11.17.22.33.33.5.1-.07.2-.14.29-.21-.18-.12-.36-.24-.55-.36-.67-.69-1.23-1.59-2.04-2.04-12.99-7.17-26.74-12.12-41.56-13.72-3.82-.41-8.46,5.53-7.75,9.85.7-.15,1.4-.3,2.09-.44,12.5-2.58,24.86-3.55,36.93,2.19,3.88,1.84,8.16,2.84,12.26,4.22ZM263.89,59.32c1.44-6.91-2.43-11.33-8.6-9.62-10.75,2.98-21.42,6.26-32.05,9.62-2.65.84-5.04,2.47-7.55,3.74,1.79.39,3.28.04,4.7-.49,3.48-1.3,6.83-3.21,10.42-3.93,11.03-2.21,22.16-5.06,33.08.69ZM344.13,19.73c-.02-.4-.05-.8-.07-1.2-.53-.22-1.05-.55-1.61-.64-6.22-.98-9.01,1.07-11.4,8.36-.78,2.39-1.87,5.15,1.18,6.52,3.05,1.37,4.92-.78,6.07-3.37.59-1.32.86-2.8,1.13-4.24.31-1.66.47-3.36.67-4.85,1.65-.24,2.84-.42,4.03-.59ZM271.05,19.69c4.49-2.4,4.76.03,4.77,3.12,0,2.34-.21,4.98.77,6.94.82,1.64,3.14,2.67,5,3.54.45.21,2.19-1.08,2.48-1.97,1.45-4.42-2.79-12.45-7.2-13.67-1.99-.55-4.34-1.39-5.81,2.04ZM235.6,40.95c.1.34.2.68.3,1.02,5.38,0,10.77.12,16.14-.1,1.16-.05,2.28-1.32,3.41-2.03-.95-1.21-1.68-2.85-2.93-3.51-1.17-.62-3.02-.6-4.34-.16-4.25,1.42-8.39,3.16-12.58,4.78ZM360.3,40.13c.25.64.5,1.27.76,1.91,7.68-2.62,15.04-1.54,22.31,1.37-5.5-4.3-11.6-6.72-18.46-6.35-1.59.09-3.08,2-4.61,3.07ZM320.89,48.47c1.94-2.78,2.63-5.27.45-7.65-.3-.33-2.47.24-2.76.86-1.24,2.64-.19,4.8,2.32,6.79ZM293.01,40.71c-.38.13-.76.25-1.14.38.36,1.84.43,3.81,1.22,5.44.33.68,2.2.61,3.37.89,0-1.15.44-2.57-.07-3.41-.79-1.3-2.22-2.22-3.38-3.3Z"/>
  <path class="cls-12" d="M212.35,185.03c1.52.17,2.4.18,3.23.37,7.58,1.78,8.76,1.51,12.82-5.62,7.69-13.51,17.59-25.17,29.22-35.3,5.52-4.82,11.6-9.06,17.73-13.1,8.42-5.55,17.99-7.16,27.9-6.74,8.99.38,16.46,8.22,15.98,17.14-.27,5.04-.51,10.48-2.56,14.91-2.57,5.58-6.92,10.35-10.63,15.38-.87,1.17-2.27,1.94-3.39,2.93-4.27,3.82-3.86,3.56-.77,8.23,2.38,3.62,3.57,8.02,5.51,12.6,1.99-2.32,3.99-4.75,6.09-7.09,4.09-4.54,8.02-9.24,12.4-13.49,6.97-6.77,16.08-7.27,24.17-4.4,4.74,1.69,7.74.49,11.62-.47,4.19-1.03,8.51-2.01,12.79-2.14,7.6-.22,14.75,7.18,14.98,14.83.05,1.67.25,3.34.45,5.83,2.05-1.24,3.5-1.89,4.69-2.85,13.47-10.99,29.38-15.01,46.12-13.86,7.96.55,16.17,4.03,23.32,7.92,9.33,5.08,10.23,13.69,3.94,23-.95,1.4-1.98,2.75-2.98,4.12.17.27.35.55.52.82,8.17-3.24,16.31-6.6,24.53-9.7,10.71-4.04,21.44-8.04,32.27-11.74,5.95-2.03,12.07-1.39,18.06.33,4.75,1.36,7.94,4.39,8.71,9.28,1.52,9.66-.14,16.12-8.74,20.01-1.65.75-3.12,1.91-5.64,3.5,2.2.37,3.34.75,4.46.72,6.53-.2,13.19,1.35,19.53-1.77.78-.39,2.99.99,3.84,2.08,2.78,3.6,2.44,7.78,1.17,11.81-3.62,11.54-10.12,19.9-23.21,21.24-19.19,1.95-38.35,2.83-57.28-1.9-4.04-1.01-8.2-2.62-11.56-5.01-4.74-3.37-9.52-3.4-14.9-2.97-7.4.59-14.88.78-22.3.4-2.89-.15-5.61-2.49-8.53-3.48-2.46-.84-5.12-1.71-7.65-1.6-3.26.15-6.48,1.27-9.72,1.97-.04.4-.08.79-.13,1.19,6.34,2.03,12.66,4.1,19.01,6.09,27.59,8.65,55.95,12.37,84.75,12.98,20.17.42,40.11-1.41,59.51-7.43,1.29-.4,2.68-.57,4.04-.68,3.07-.24,6.12-.32,7.55,3.26,1.4,3.5.43,7.38-3.01,9.54-5.47,3.43-10.87,7.32-16.85,9.51-15.07,5.51-30.41,10.3-45.72,15.1-3.4,1.07-7.14,1.39-10.72,1.41-17.97.12-35.95.38-53.91-.07-17.44-.43-34.21-5.04-50.9-9.76-16.2-4.57-32.42-9.41-49.32-10.24-15.3-.75-30.7-1.17-45.97-.31-27.08,1.53-53.76,6.33-79.73,14.13-20.5,6.16-40.58,13.74-60.95,20.34-22.87,7.41-45.88,14.43-69.58,18.77-12.94,2.36-25.98,3.84-39.07,1.67-20.89-3.46-34.11-16.93-38.78-38.85-3.01-14.08-.38-27.62,4.25-40.81,11.51-32.84,31.08-60.17,57.59-82.53,18.33-15.46,38.18-28.6,60.97-36.54,16.44-5.73,33.38-8.41,50.78-4.99,14.32,2.82,24.27,10.89,28.01,25.26,2.34,9,.02,17.75-3.57,26.14-1.46,3.41-2.87,6.84-4.46,10.63ZM355.86,218.19c.25.25.5.49.75.74,4.67,1.31,9.34,2.61,14,3.92,1,1.39,2.03,2.76,3,4.18,4.36,6.36,9.79,10.76,18.09,9.88,6.9-.21,13.81-.3,20.7-.7,2.27-.13,4.5-1.1,6.75-1.68,2.5,1.01,5.16,1.76,7.48,3.08,6.59,3.75,13.53,5.48,21.09,4.58,3.57-.42,7.14-.85,10.72-1.21,4.3-.44,8.16-.58,12.37,2.1,4.3,2.74,9.87,3.47,14.89,5.09,3.41.82,6.81,1.64,10.22,2.46.4.22.8.61,1.2.62,9.12.24,18.24.43,27.36.63,4.12-.7,8.27-1.24,12.34-2.14,4.93-1.08,10.63-1.26,14.49-3.98,5.72-4.04,8.53-10.88,10.33-17.75.57-2.16-.56-3.33-2.86-3.16-2.49.18-4.97.49-7.46.52-6.29.07-12.57.02-18.83.02-.72-8.62.28-10.39,7.71-14,.78-.38,1.52-.85,2.32-1.19,2.82-1.17,3.79-3.29,3.62-6.26-.21-3.58.48-7.42-3.41-9.65-7.11-4.08-14.66-5.98-22.59-3.18-9.49,3.36-18.8,7.23-28.2,10.86-10.45,4.04-20.89,8.1-31.37,12.03-1.49.56-3.21.49-4.82.71-.21-.33-.41-.66-.62-.99,1.26-2.07,2.55-4.12,3.79-6.2,2.6-4.37,5.65-8.56,7.63-13.2,2.27-5.31.2-9.16-5.17-11.33-3.58-1.44-7.24-2.69-10.84-4.05-2.3-.87-4.53-2.41-6.88-2.6-12.76-1.03-24.65,2.31-36.01,7.9-1.07.54-2.14,1.08-3.21,1.62-2.91,1.67-5.77,3.41-8.72,4.98-3.72,1.99-7.47,3.93-11.31,5.69-.85.39-2.75.28-2.99-.2-.45-.89-.33-2.34.07-3.34.6-1.47,1.67-2.75,2.52-4.13,4.43-7.19.86-14.33-7.46-14.9-.87-.06-1.78-.22-2.61-.05-5.45,1.11-10.89,2.3-16.34,3.47-2.22.48-4.56,2.11-6.49-.47-3.01-4.02-7.19-4.24-11.48-3.33-7.47,1.58-13.42,5.7-18.26,11.58-3.96,4.81-7.97,9.58-12.22,14.12-1.35,1.45-3.44,2.43-5.37,3.05-1.73.55-2.69-.3-2.27-2.51.43-2.26.79-4.76.25-6.92-1.23-4.97-2.08-10.33-8.07-12.44-1.88-.66-1.28-2.21.01-3.49,3.45-3.44,6.78-6.99,10.19-10.46,4.73-4.81,8.73-10.03,11.27-16.41,3.76-9.45-.76-18.83-10.58-21.18-6.68-1.6-13.15-.53-19.4,1.94-10.03,3.98-18.31,10.58-26,17.96-12.14,11.66-21.96,25.13-30.53,39.56-.69,1.17-2.01,2.91-2.94,2.84-6.67-.44-13.34-1.07-19.94-2.09-2.16-.33-3.09-1.91-.55-3.83,5.74-4.34,9.1-10.5,10.99-17.19,5.26-18.63-3.06-33.49-21.62-39.24-11.36-3.52-22.88-2.94-34.43-1.06-21.51,3.5-39.96,13.81-57.6,25.93-.5.36-1.01.72-1.51,1.08-1.01.78-2.03,1.55-3.04,2.33-.9.63-1.9,1.15-2.69,1.9-2.98,2.83-5.73,5.9-8.85,8.56-13.07,11.15-25.07,23.32-35.13,37.27-14.54,20.13-26.21,41.59-29.26,66.79-2.66,22.01,8.4,38.98,26.34,47.16,8.4,3.83,17.57,4.44,26.55,4.13,8.02-.28,16.07-1.65,23.95-3.31,10.1-2.14,20.08-4.86,30.01-7.7,12.67-3.63,25.28-7.49,37.85-11.5,8.42-2.68,16.64-5.99,25.06-8.65,10.14-3.19,20.4-5.98,30.6-8.95,6.23-1.42,12.48-2.78,18.7-4.29,2.82-.69,5.57-1.68,8.35-2.53,2.14-.4,4.28-.82,6.43-1.2,6.53-1.16,13.04-2.44,19.6-3.41,6.52-.96,13.07-1.79,19.64-2.33,8.16-.66,16.35-.97,24.53-1.43,7.8-.25,15.6-.49,23.41-.74l-.05-.02c1.54.23,3.07.45,4.61.68,10.58,1.09,21.15,2.18,31.73,3.27,1.65.77,3.24,1.81,4.97,2.26,5.95,1.54,11.95,2.88,17.93,4.3l-.03-.02c.93.26,1.87.52,2.8.78,26.73,9.6,54.47,11.85,82.58,11.43,8.44,1.57,16.76,1.18,24.92-1.64.27-.26.49-.69.8-.76,6.09-1.36,12.33-2.24,18.27-4.09,9.18-2.87,18.33-5.99,27.17-9.76,6.81-2.9,13.21-6.81,19.59-10.62,1.1-.66,1.89-3.27,1.54-4.64-.65-2.51-3.03-2.08-5.02-1.44-2,.65-3.92,1.61-5.95,2.13-15.41,4-31.22,5.38-47.02,5.73-35.03.79-69.42-3.89-102.8-14.72-28.86-9.37-58.32-15.11-88.63-16.5-1.1-.05-2.18-.49-3.26-.74-.21-.45-.41-.9-.62-1.35,6.26-6.07,12.52-12.14,18.78-18.21,1.13.56,2.27,1.11,3.4,1.67,2.34,1.16,4.69,2.33,7.03,3.49h.01ZM333.95,227.74c.4.55.8,1.11,1.2,1.66,12.55,1.31,25.11,2.61,38.05,3.96-1.01-4.12-3.03-6.57-6.56-7.06-6.69-.94-12.56-3.68-18.21-7.19-1.02-.63-3.14-.82-3.99-.18-3.65,2.73-7.02,5.84-10.48,8.81Z"/>
  <path class="cls-8" d="M382.72,143.2c-4.05,3.67-8.11,7.33-12.15,11.01-1.55,1.41-3.05,2.88-5,3.97,9.05-13.77,20.77-25.43,30.86-38.35l-.77-.74c-.8.79-1.63,1.55-2.38,2.39-10.19,11.32-20.37,22.66-30.55,33.99-.25.28-.51.55-.77.82-5.36,5.59-5.87,5.69-13.43,2.33,3.95-4.43,7.8-8.82,11.73-13.12,36.09-39.42,72.13-78.88,108.36-118.17,5.65-6.13,12.3-11.34,18.2-17.26,8.5-8.52,18.21-8.27,28.29-4.09,16.77,6.95,24.56,21.26,20.97,39.11-.84,4.17-3.15,8.65-6.13,11.66-9.62,9.76-19.57,19.25-29.93,28.22-28.19,24.43-56.65,48.55-85.02,72.77-4.55,3.89-9.17,7.71-13.81,11.49-1.29,1.05-2.78,1.86-4.18,2.78-.34-.29-.68-.58-1.01-.87,1-1.5,1.75-3.28,3.06-4.45,7.98-7.17,16-14.3,24.18-21.25,21.67-18.42,43.44-36.72,65.14-55.11,7.71-6.53,15.39-13.09,22.9-19.85,2.37-2.13,4.45-4.76,6.05-7.52.72-1.25.3-3.54-.38-5-.24-.52-3.19-.54-4.2.2-6.04,4.37-12.19,8.68-17.71,13.66-19.06,17.22-38.49,33.93-61.2,46.25-6.73,3.65-13.79,6.68-20.76,9.86-1.62.74-3.49.91-5.82.59,1.11-1.52,2.13-3.12,3.34-4.54,12.24-14.31,24.61-28.52,36.73-42.94,3.2-3.8,5.68-8.22,8.49-12.35l-.99-.75c-.9.8-1.89,1.51-2.68,2.41-17.2,19.76-34.38,39.53-51.54,59.31-.57.65-1.02,1.41-1.47,2.15-1.65,2.71-1.11,3.77,2.14,3.98,8.25.54,15.82-2.29,23.44-4.87,1.4-.47,2.75-1.08,4.13-1.63l.52.65c-4.6,4.12-8.81,8.82-13.88,12.24-11.3,7.63-23.3,14.07-36.79,17.06-1.27.28-2.69-.1-5.04-.23,3.58-5.73,6.58-10.54,9.58-15.35.04-.3.08-.61.13-.91-.22.16-.43.32-.65.48ZM425.32,80.1c-.16.23-.32.47-.48.7.4-.07.8-.14,1.2-.21.22-.09.38-.25.48-.47,17.91-16.63,35.89-33.18,53.67-49.95,6.42-6.05,13.28-10.33,22.49-9.23.07.23.15.46.22.69.11-.04.21-.09.32-.13-.21-.16-.42-.33-.63-.49-2-.74-3.99-2.06-6.01-2.11-6.03-.15-11.72,1.68-16.09,5.85-14.08,13.45-27.99,27.09-41.84,40.79-4.42,4.38-8.44,9.16-12.65,13.76-.23.27-.47.53-.7.8ZM483.31,33.92c6.76-3.18,12.55-9.53,21.42-6.57-2.28-1.24-4.57-2.1-6.82-2-6.22.28-10.67,4.31-15.24,7.95-.27.35-.54.69-.82,1.04.49-.14.97-.28,1.46-.42ZM437.7,105.7l.88.79c1.71-.64,3.45-1.19,5.11-1.92,21.5-9.5,39-24.2,53.98-42.06,3.24-3.86,5.97-8.25,8.29-12.73,1.72-3.33.53-5.16-3.3-6.84,2.06,5.21.34,9.37-3.11,13.1-3.9,4.21-7.62,8.6-11.66,12.67-9.77,9.85-20.54,18.46-32.53,25.5-1.49.88-3.21,1.39-4.82,2.07.48-2.16,1.25-3.75,2.35-5.05,10.77-12.78,21.59-25.52,32.4-38.26,1.69-2,3.53-3.89,5.03-6.03.57-.82.37-2.19.52-3.32-1.09.09-2.35-.14-3.24.33-1.4.74-2.71,1.81-3.79,3-3.78,4.15-7.62,8.26-11.11,12.65-11.01,13.85-21.89,27.81-32.75,41.77-.98,1.26-1.5,2.88-2.24,4.33ZM524.9,45.36c-3.2-5.5-13.29-10.08-19.04-8.83,5.05,9.88,11.56,12.97,19.04,8.83ZM531.44,27.56c-2.5-6.68-6.95-11.72-12.76-15.51-1.23-.8-3.1-.62-4.67-.89-.23.46-.47.91-.7,1.37,5.09,6.05,10.73,11.49,18.14,15.03Z"/>
  <path class="cls-8" d="M162.4,69.14c4.49,6.54,8.67,13.32,13.54,19.57,5.59,7.18,11.77,13.88,17.69,20.8.87,1.02,1.71,2.08,3.26,3.97-5.6-.71-10.26-1.33-14.93-1.89-3.19-.39-6.82.13-9.5-1.23-5.9-3-11.75-6.41-16.86-10.58-13.72-11.19-27.01-22.91-40.54-34.34-2.94-2.48-6.09-4.75-9.32-6.84-2.06-1.33-4.91-2.78-6.48.05-.72,1.29.17,4.46,1.41,5.71,6.66,6.72,13.47,13.34,20.6,19.57,10.51,9.19,21.32,18.04,32.03,27.01.93.78,2.06,1.32,3.1,1.98l-1.2,1.61c-2.06-1.06-4.36-1.83-6.14-3.24-8.9-7.02-17.91-13.93-26.42-21.41-11.06-9.72-21.41-20.25-32.55-29.86-16.01-13.81-12.11-39.24,4.6-49.77,7.23-4.56,14.65-8.56,23.35-6.31,4.38,1.13,9.1,3.32,12.26,6.45,18.91,18.7,37.73,37.5,55.95,56.86,19.07,20.27,37.45,41.19,56.09,61.87,1.91,2.12,3.55,4.49,5.31,6.76,1.7,2.19.74,3.79-1.02,5.43-2.03,1.91-3.5.55-4.73-.76-6.33-6.73-12.55-13.56-18.82-20.33-.77-.83-1.63-1.58-2.46-2.36-.26.23-.52.47-.77.7l23.04,28.2c-.4.41-.81.82-1.21,1.23-2.48-1.9-4.95-3.81-7.43-5.71-.44.08-.88.16-1.33.24,4.13,5.38,7.35,10.67-1.1,15.12-.63-2.58-1.41-5.08-1.84-7.64-1.26-7.58-4.44-14.15-9.65-19.81-17.35-18.81-34.63-37.68-51.97-56.5-1.69-1.83-3.58-3.47-5.38-5.2-.35-.16-.71-.32-1.06-.48.16.39.33.77.49,1.16ZM127.76,41.98l-1.15.83c-.2,3.85,2.07,6.62,4.48,9.42,10.9,12.66,21.76,25.35,32.58,38.07,1.35,1.59,2.35,3.48,3.51,5.24-.24.27-.48.55-.72.82-1.64-.73-3.39-1.28-4.9-2.21-17.54-10.81-32.96-24.06-45.77-40.26-2.27-2.87-3.98-5.85-.69-9.23.28-.28.04-1.08.04-1.71-3.37.29-4.34,2.25-3.88,4.92.38,2.17.79,4.57,1.98,6.33,2.91,4.31,5.99,8.59,9.52,12.4,14.59,15.71,30.96,29.1,50.74,37.85,1.69.75,3.56,1.06,5.35,1.57.21-.3.42-.6.63-.89-1.34-2.33-2.43-4.84-4.05-6.94-4.65-6.01-9.45-11.9-14.3-17.75-9.7-11.7-19.45-23.37-29.25-34.99-1.14-1.35-2.73-2.32-4.11-3.46ZM118.29,18.97c4.61,2.44,9.89,4.61,14.45,7.8,5.07,3.55,9.63,7.89,14.17,12.14,13.92,13.04,27.72,26.2,41.59,39.3.86.82,1.89,1.46,2.83,2.19,0-1.34-.46-2.06-1.05-2.64-17.45-17.29-34.98-34.48-52.32-51.88-5.71-5.73-12.24-8.09-19.69-6.9ZM92.43,44.34c3.75,2.98,8.03,3.25,11.15,1.68,2.99-1.5,4.86-5.26,7.11-8.11.1-.13-1.1-1.81-1.53-1.74-6.26,1.01-11.93,3.31-16.73,8.17ZM85.9,26.85c.29.23.58.46.87.69,6.31-2.45,10.67-7.41,14.98-12.35.75-.86.76-2.37,1.11-3.58-1.38.12-3.26-.29-4.07.46-4.07,3.78-7.91,7.81-11.72,11.86-.67.71-.8,1.93-1.17,2.91ZM135.46,34.13c-5.09-4.45-10.6-8.35-17.63-8.99-1.55-.14-3.21.96-4.83,1.48.08.44.15.88.23,1.32,8.93-2.97,14.83,3.76,22.22,6.19ZM217.26,114.4c-.19.21-.37.41-.56.62l2.47,3.98c.49-.51.97-1.02,1.46-1.53l-3.37-3.07Z"/>
  <path class="cls-6" d="M335.11,279.73c26.8.34,52.62,6.01,77.82,14.8,5.63,1.97,5.89,2.43,5.74,8.36-.08,3.22-.36,6.47-.87,9.65-.28,1.73-1.59,3.3-3.44,1.68-5.2-4.55-11.55-4.05-17.71-4.44-17.07-1.09-34-3.32-50.34-8.44-5.84-1.83-11.22-5.26-16.62-8.31-2.22-1.25-4.27-3.16-5.79-5.23-1.29-1.77-1.71-4.18-2.51-6.31,1.95-.59,3.87-1.47,5.87-1.7,2.59-.3,5.23-.07,7.85-.07Z"/>
  <path class="cls-21" d="M216.01,316.04c6.44-6.72,13.14-13.21,19.24-20.22,4.85-5.58,10.06-8.01,16.14-5.86-1.29,1.37-2.41,2.66-3.64,3.84-10.97,10.53-22.08,20.92-32.85,31.65-2.86,2.85-4.7,6.72-7.05,10.18-.93.11-2.65.37-4.37.5-2.42.17-5.01.84-7.25.23-5.81-1.58-7.31-6.4-3.16-10.7,6.57-6.81,13.51-13.28,20.46-19.71,4.27-3.96,8.85-7.57,13.3-11.35.17.17.34.33.52.49-7.55,8.12-15.11,16.24-22.66,24.37-1.02,1.09-2,2.22-2.99,3.34-.24.36-.48.72-.72,1.07.51-.12,1.02-.23,1.53-.35,4.44-3.68,8.88-7.37,13.32-11.05.23.14.47.29.7.43-.34.87-.68,1.75-1.02,2.62-.17.24-.35.49-.52.73.34-.08.68-.15,1.02-.23Z"/>
  <path class="cls-26" d="M313.02,86.14c-.23-4.14-.45-8.28-.71-13.09,3.52,2.03,3.86,5.06,4.55,7.79.68,2.68,1.1,5.43,1.74,8.71,3.14-4.9,5.56-15.74,5.72-24.07.04-1.97-.08-4.09.6-5.86.52-1.35,2.2-3.19,3.32-3.16,1.67.05,3.46,1.35,4.86,2.52.69.58.98,2.1.87,3.12-.61,5.41-.78,10.99-2.31,16.16-1.93,6.5-4.99,12.66-7.64,18.94-.53,1.25-1.33,2.4-2.12,3.51-3.51,4.91-6.7,4.76-9.95-.42-.3-.48-.74-.88-1.11-1.32,0,0,.05.04.05.04l-.78-2.38c.56-1.91,1.14-3.81,1.67-5.72.44-1.58.82-3.18,1.23-4.77Z"/>
  <path class="cls-26" d="M301.82,101.81c-.36,2.99-2.49,3.13-4.33,2.02-1.82-1.1-3.64-2.77-4.61-4.64-6.25-12-9.54-24.92-11.04-38.31-.32-2.89,1.05-4.9,4.03-5.28,2.79-.35,5.17,2.2,5.54,5.05,1.69,13.04,4.44,25.83,9.27,38.11.06.16.41.21.62.31.17.91.34,1.82.51,2.74Z"/>
  <path class="cls-15" d="M211.93,86.09c6.93-6.21,15.41-9.64,23.96-12.63,8.66-3.03,17.62-5.18,26.46-7.69,3.75-1.07,6.7.3,8.67,3.46,1.91,3.06,3.5,6.32,5.55,10.06-23.89-10.25-44.46-3.16-64.54,7.82-.03-.34-.07-.69-.1-1.03Z"/>
  <path class="cls-23" d="M301.82,101.81c-.17-.91-.34-1.82-.51-2.74,1-4.28,1.66-8.69,3.15-12.8.66-1.82,2.98-3.03,4.55-4.51,1.34,1.46,2.67,2.92,4.01,4.38-.41,1.59-.79,3.19-1.23,4.77-.53,1.92-1.11,3.82-1.67,5.72.26.79.52,1.59.78,2.38,0,0-.05-.04-.05-.04,1.09,3.12,2.39,6.18,3.21,9.36.69,2.7,1.14,5.55,1.08,8.33-.02,1.25-1.53,2.47-2.52,3.94-3.87-6.73-7.34-12.77-10.81-18.8Z"/>
  <path class="cls-21" d="M415.57,323.58c-2.85-3.47-5.69-6.93-8.54-10.4.42-.43.85-.87,1.27-1.3,4.52,3.63,9.05,7.25,13.35,10.7-.12.71-.1.86-.16.95-7.29,9-9.24,9.26-17.84,1.68-4.73-4.17-9.19-8.67-13.5-13.4,3.94-.56,6.99,1.05,9.89,3.11,1.39.99,1.34.93,3.36.2.5-.18,1.79.36,1.82.65.09,1.01-.22,2.06-.29,2.49,3.28,1.94,6.6,3.9,9.91,5.86.44.16.88.33,1.32.49-.2-.35-.41-.7-.61-1.05Z"/>
  <path class="cls-26" d="M270.69,46.39c5.69,2.24,9.5,10.65,8.14,17.74-5.04-4.96-7.66-10.56-8.14-17.74Z"/>
  <path class="cls-16" d="M348.07,47.39c-2.62,4.54-5.25,9.09-8.17,14.14-3.92-6.69-1.27-12.98,7.22-14.86.32.24.63.48.95.72Z"/>
  <path class="cls-10" d="M406.52,153.13c-3.74,3.59-7.44,7.22-11.24,10.74-1.44,1.33-3.41,1.66-4.38-.28-.42-.83.42-3.05,1.33-3.67,4.32-2.92,8.87-5.51,13.34-8.22.32.47.64.94.96,1.42Z"/>
  <path class="cls-16" d="M263.6,127.09c-3.31,2.67-6.44,5.63-10,7.9-2.65,1.69-3.01-1.66-3.99-3.01-.31-.43.66-2.62,1.43-2.88,3.82-1.31,7.78-2.25,11.68-3.33.29.44.58.87.88,1.31Z"/>
  <path class="cls-24" d="M186.63,336.6c5.59,3.98,11.24,7.21,19.13,3.13-6.12,6.43-16.59,4.36-19.13-3.13Z"/>
  <path class="cls-19" d="M432.39,333.6c-.79,1.65-1.31,3.51-2.43,4.9-2.82,3.52-10.28,6.14-14.94,4.99,3.79-1.24,7.12-1.74,9.79-3.35,2.66-1.6,4.65-4.31,6.94-6.54.22,0,.43,0,.65,0Z"/>
  <path class="cls-8" d="M428.85,129.25c.31-.02.61-.03.92-.05-.13.23-.26.46-.4.7-.17-.22-.35-.43-.52-.65Z"/>
  <path class="cls-21" d="M226.83,294.61c.25-.13.5-.26.74-.4-.07.29-.15.59-.22.89-.18-.16-.35-.32-.52-.49Z"/>
  <path class="cls-15" d="M403.68,64.55c-4.1-1.38-8.38-2.38-12.25-4.22-12.08-5.74-24.43-4.77-36.93-2.19-.7.14-1.39.3-2.09.44-.7-4.32,3.94-10.27,7.75-9.85,14.82,1.6,28.57,6.55,41.56,13.72.81.45,1.37,1.35,2.04,2.04,0,0-.08.07-.08.07Z"/>
  <path class="cls-15" d="M263.89,59.32c-10.91-5.74-22.05-2.9-33.08-.69-3.59.72-6.94,2.64-10.42,3.93-1.42.53-2.91.88-4.7.49,2.51-1.27,4.9-2.9,7.55-3.74,10.64-3.36,21.3-6.65,32.05-9.62,6.17-1.71,10.04,2.72,8.6,9.62Z"/>
  <path class="cls-18" d="M344.13,19.73c-1.19.17-2.39.35-4.03.59-.2,1.49-.36,3.18-.67,4.85-.27,1.44-.55,2.92-1.13,4.24-1.15,2.59-3.01,4.74-6.07,3.37-3.05-1.37-1.96-4.13-1.18-6.52,2.39-7.29,5.19-9.34,11.4-8.36.55.09,1.07.42,1.61.64.03.4.05.8.07,1.2Z"/>
  <path class="cls-20" d="M271.05,19.69c1.47-3.43,3.82-2.59,5.81-2.04,4.41,1.22,8.65,9.25,7.2,13.67-.29.88-2.03,2.18-2.48,1.97-1.86-.87-4.18-1.9-5-3.54-.98-1.96-.76-4.6-.77-6.94-.01-3.09-.28-5.52-4.77-3.12Z"/>
  <path class="cls-9" d="M235.6,40.95c4.19-1.62,8.33-3.36,12.58-4.78,1.32-.44,3.17-.45,4.34.16,1.25.66,1.97,2.3,2.93,3.51-1.14.71-2.25,1.98-3.41,2.03-5.37.22-10.76.1-16.14.1-.1-.34-.2-.68-.3-1.02Z"/>
  <path class="cls-20" d="M360.3,40.13c1.53-1.07,3.02-2.99,4.61-3.07,6.85-.37,12.96,2.05,18.46,6.35-7.27-2.91-14.63-3.98-22.31-1.37-.25-.64-.5-1.27-.76-1.91Z"/>
  <path class="cls-20" d="M320.89,48.47c-2.51-1.99-3.56-4.15-2.32-6.79.29-.63,2.46-1.19,2.76-.86,2.19,2.39,1.49,4.88-.45,7.65Z"/>
  <path class="cls-20" d="M293.01,40.71c1.16,1.08,2.59,2,3.38,3.3.51.84.08,2.25.07,3.41-1.17-.27-3.03-.2-3.37-.89-.79-1.62-.86-3.6-1.22-5.44.38-.13.76-.25,1.14-.38Z"/>
  <path class="cls-15" d="M403.76,64.48c.18.12.36.24.55.36-.1.07-.2.14-.29.21-.11-.17-.22-.33-.33-.5,0,0,.07-.07.07-.07Z"/>
  <path class="cls-10" d="M222.46,282.88c-10.21,2.96-20.47,5.75-30.6,8.95-8.43,2.65-16.64,5.96-25.06,8.65-12.56,4-25.17,7.87-37.85,11.5-9.93,2.84-19.92,5.56-30.01,7.7-7.87,1.67-15.93,3.04-23.95,3.31-8.99.31-18.15-.3-26.55-4.13-17.94-8.18-29-25.15-26.34-47.16,3.05-25.19,14.72-46.66,29.26-66.79,10.07-13.94,22.06-26.12,35.13-37.27,3.12-2.66,5.87-5.74,8.85-8.56.79-.75,1.79-1.27,2.69-1.9-.21,1.11-.43,2.22-.64,3.33-.26.49-.52.98-.78,1.48-.46,1.08-.92,2.16-1.37,3.24-4.05,3.69-8.14,7.34-12.13,11.09-20.16,18.98-37.11,40.32-48.26,65.92-5.94,13.65-10.19,27.63-7.09,42.72,3.1,15.07,11.35,25.27,27.05,28.86,15.65,3.58,31.18,2.54,46.27-1.61,26.01-7.15,51.9-14.86,77.55-23.23,41.81-13.63,84.02-25.07,128.08-28.36,31.24-2.34,62.01-.41,92.15,8.92,24.73,7.66,49.94,12.97,75.93,13.79,24.86.79,48.85-3.89,72.32-11.74.97-.32,1.88-.8,2.82-1.21-1.46-.76-2.79-.9-4.13-.91-14.36-.12-28.71-.16-43.07-.35-16.86-.22-33.71-1.03-50.13-5.21-15.19-3.86-30.36-7.85-45.35-12.41-38.62-11.73-77.94-14.95-117.98-10.7-30.44,3.23-60.19,9.82-89.52,18.37-24.49,7.14-48.87,14.66-73.41,21.6-12.6,3.56-25.47,6.14-38.71,5.7-12.72-.42-20.4-6.9-21.75-19.54-.59-5.55.02-11.5,1.38-16.94,5.36-21.35,16.06-40.11,29.79-57.08,12.59-15.56,27.14-28.9,46.06-36.54,8.79-3.55,17.87-5.96,27.48-5.65,8.3.26,12.55,4.41,12.03,12.68-.23,3.73-1.64,7.47-2.97,11.03-1.98,5.34-1.07,7.9,4.46,8.91,3.1.57,6.55.61,9.6-.13,11.19-2.73,18.03-13.23,18.37-26.36.34-13.32-8.6-20.45-18.67-23.29-11.59-3.27-23.35-2.89-35.05-.39-16.26,3.48-31.13,10.29-45.11,19.18-1.43.91-3.06,1.48-4.6,2.21-1.77,0-3.55.02-5.32.03l-.74-.83c17.64-12.12,36.08-22.43,57.6-25.93,11.55-1.88,23.06-2.46,34.43,1.06,18.56,5.75,26.88,20.6,21.62,39.24-1.89,6.69-5.25,12.85-10.99,17.19-2.54,1.92-1.61,3.49.55,3.83,6.6,1.02,13.27,1.65,19.94,2.09.93.06,2.24-1.68,2.94-2.84,8.57-14.43,18.39-27.9,30.53-39.56,7.69-7.39,15.97-13.99,26-17.96,6.25-2.48,12.72-3.54,19.4-1.94,9.81,2.35,14.34,11.73,10.58,21.18-2.54,6.38-6.54,11.6-11.27,16.41-3.41,3.47-6.74,7.02-10.19,10.46-1.29,1.28-1.89,2.83-.01,3.49,6,2.11,6.84,7.47,8.07,12.44.54,2.16.17,4.67-.25,6.92-.42,2.22.55,3.07,2.27,2.51,1.93-.62,4.02-1.6,5.37-3.05,4.25-4.54,8.26-9.32,12.22-14.12,4.84-5.88,10.79-10,18.26-11.58,4.29-.91,8.47-.69,11.48,3.33,1.93,2.58,4.27.95,6.49.47,5.44-1.17,10.88-2.36,16.34-3.47.83-.17,1.74-.01,2.61.05,8.32.57,11.89,7.71,7.46,14.9-.85,1.38-1.92,2.65-2.52,4.13-.41,1-.53,2.45-.07,3.34.24.48,2.14.59,2.99.2,3.83-1.76,7.58-3.7,11.31-5.69,2.95-1.58,5.82-3.32,8.72-4.98,1.15.28,2.3.57,3.45.85-.08-.82-.16-1.65-.24-2.47,11.36-5.58,23.25-8.93,36.01-7.9,2.35.19,4.58,1.73,6.88,2.6,3.61,1.37,7.27,2.61,10.84,4.05,5.37,2.17,7.44,6.01,5.17,11.33-1.98,4.64-5.03,8.83-7.63,13.2-1.24,2.08-2.52,4.14-3.79,6.2.21.33.41.66.62.99,1.61-.22,3.34-.15,4.82-.71,10.49-3.94,20.93-8,31.37-12.03,9.4-3.63,18.71-7.51,28.2-10.86,7.93-2.8,15.49-.9,22.59,3.18,3.89,2.23,3.2,6.07,3.41,9.65.17,2.97-.8,5.09-3.62,6.26-.8.33-1.54.81-2.32,1.19-7.44,3.61-8.43,5.38-7.71,14,6.26,0,12.55.05,18.83-.02,2.49-.03,4.97-.33,7.46-.52,2.3-.17,3.43,1,2.86,3.16-1.81,6.87-4.61,13.72-10.33,17.75-3.85,2.72-9.56,2.9-14.49,3.98-4.07.89-8.23,1.44-12.34,2.14-1.13-.23-2.25-.62-3.39-.66-5.69-.21-11.38-.34-17.07-.48-2.7-.06-5.4-.07-8.1-.11-3.41-.82-6.81-1.64-10.22-2.46-3.48-1.55-7.46-2.47-10.33-4.78-7.05-5.67-14.5-5.52-22.46-3.07-.12.04-.24.08-.36.1-8.38,1.13-16.8,1.78-23.82-4.13-3.09-2.61-6.06-2.95-9.59-1.76-2.25.58-4.47,1.55-6.75,1.68-6.89.41-13.8.49-20.7.7-7.74-1.54-13.9-5.24-17.69-12.49-.46-.87-2.24-1.06-3.4-1.56-4.67-1.31-9.34-2.61-14-3.92-.25-.25-.5-.49-.75-.74,0,0-.01-.01-.01-.01-2.7-2.46-5.4-4.91-8.38-7.63-.76.92-1.41,1.69-2.05,2.47-6.26,6.07-12.52,12.14-18.78,18.21.21.45.41.9.62,1.35,1.09.26,2.17.69,3.26.74,30.31,1.38,59.77,7.13,88.63,16.5,33.38,10.84,67.77,15.51,102.8,14.72,15.8-.36,31.6-1.74,47.02-5.73,2.03-.53,3.95-1.48,5.95-2.13,1.99-.65,4.37-1.07,5.02,1.44.36,1.37-.43,3.98-1.54,4.64-6.37,3.81-12.78,7.72-19.59,10.62-8.84,3.76-17.99,6.89-27.17,9.76-5.94,1.85-12.17,2.74-18.27,4.09-.31.07-.54.5-.8.76-1.3-.14-2.61-.48-3.88-.37-7.02.61-14.02,1.33-21.03,2.01-28.11.42-55.86-1.83-82.57-11.42-.93-.25-1.87-.52-2.81-.79,0,0,.03.02.03.02-7.63-2.19-15.27-4.37-22.9-6.56-10.58-1.09-21.15-2.18-31.73-3.27-1.54-.23-3.07-.45-4.61-.68,0,0,.05.02.05.02-7.36-.14-14.72-.3-22.09-.37-.44,0-.88.72-1.32,1.11-8.18.46-16.37.76-24.53,1.43-6.57.54-13.12,1.37-19.64,2.33-6.56.97-13.07,2.25-19.6,3.41-2.15.38-4.29.8-6.43,1.2-5.39,1.15-10.81,2.17-16.16,3.49-3.68.9-7.26,2.21-10.89,3.33ZM151.25,160.89c-2.62.91-5.33,1.6-7.83,2.76-8.48,3.93-16.67,8.36-23.45,14.99-5.25,5.14-10.78,10.03-15.76,15.42-3.64,3.94-6.67,8.45-9.8,12.83-2.79,3.92-5.61,7.86-7.91,12.06-2.8,5.12-4.93,10.6-7.6,15.79-4.99,9.69-8.19,19.85-7.9,30.82.22,8.17,6.69,14.65,13.75,14.96,14.2.62,28.14-.88,41.7-4.97,27.64-8.33,55.2-16.94,82.78-25.47,3.99-1.23,7.93-2.63,11.89-3.95.86-.34,1.72-.68,2.58-1.01,0-.4-.01-.8-.02-1.2-5.15-.52-10.3-1.04-15.44-1.56-4.51-1.33-5.56-4.94-5.27-10.1-3.28,2.93-5.51,5.25-8.06,7.13-12.35,9.07-25.34,16.96-40.69,19.76-4.51.82-9.22,1.11-13.79.85-5.01-.28-7.49-4.7-10.63-7.95-2.67-2.77-3.34-6.11-2.93-9.64.84-7.19,3.49-13.75,7.86-19.52,11.87-15.67,28.1-24.58,46.58-29.99,1.06-.31,2.03-.9,3.68-1.65-1.44-.7-2.08-1.26-2.74-1.3-7.93-.45-9.96-7.08-7.72-13.83.98-2.95,2.03-5.88,2.82-8.87,1.35-5.08.56-6.96-3.44-8.98-4.89-.13-9.81-.64-14.66-.26-2.72.21-5.33,1.88-7.98,2.89ZM290.23,212.15c.63-1.8,1.03-3.19,1.6-4.52,1.61-3.76,3.46-7.43,4.89-11.26,1.69-4.52-.37-8.86-4.86-10.6-1.6-.62-3.37-.78-5.01-1.31-2.28-.74-4.52-1.63-6.77-2.46,1.44-2.03,2.57-4.4,4.37-6.05,6.24-5.74,12.82-11.1,19.03-16.87,4.29-3.99,6.74-9.16,7.9-14.92,1-4.99-.48-7.85-5.1-9.85-4.31-1.87-8.55-1.54-13.04-.4-16.78,4.26-29.14,14.84-39.26,28.11-8.37,10.97-15.88,22.61-23.63,34.06-1.7,2.51-3.28,3.13-6.18,2.02-3.56-1.37-7.3-2.73-11.05-3.03-21.1-1.71-40.4,3.99-57.96,15.5-9.53,6.25-17.31,14.3-21.25,25.34-3.8,10.64.63,17.39,11.86,16.73,22.56-1.33,41.13-11.12,55.1-28.93,2.62-3.34,4.05-7.98,4.93-12.25,1.35-6.55,2.24-7.47,8.55-5.4.94.31,1.9.6,2.79,1.02,2.19,1.04,3.3,2.73,2.42,5.15-1.05,2.91-2.22,5.78-3.49,8.59-2.14,4.72-4.41,9.37-6.82,14.47,2.21.35,3.66.73,5.12.79,19.76.76,39.28.37,58.17-7.02,9.1-3.56,18.8-5.57,28.23-8.25,2.04-.58,3.69-.57,3.84,2.33.37,6.92,4.17,9.67,10.73,7.08,3.83-1.52,7.48-4,10.6-6.73,6.48-5.66,12.54-11.81,18.82-17.71,2.15-2.02,4.42-3.91,6.97-6.15.63,1.75,1.33,2.97,1.48,4.26.72,6.2,4.65,9.04,10.3,10.12,3.66.7,7.45.94,10.98,2.04,1.84.57,4.14,2.29,4.67,3.97,2.18,7.04,7.05,9.65,13.9,10.28,10.27.94,20.13-.89,29.79-3.97,3.29-1.05,5.14-.19,7.34,2.19,2.02,2.19,4.82,5.18,7.25,5.17,8.17-.05,16.52-.5,24.43-2.36,4.38-1.03,7.07-.41,9.98,2.28,5.09,4.7,11.15,7.41,17.91,8.63,15.36,2.79,30.81,2.26,46.25.95,3.8-.32,7.62-1.26,11.24-2.49,4.64-1.57,7.19-5.19,8.5-10.43-9.97.68-19.38,1.33-29.5,2.02.57-6.6.97-12.91,1.76-19.17.17-1.38,1.43-2.99,2.65-3.8,2.79-1.85,6.01-3.05,8.75-4.95,1.49-1.03,3.38-3.09,3.22-4.46-.18-1.43-2.44-2.9-4.1-3.75-1.59-.82-3.55-1.06-5.38-1.22-7.81-.67-14.9,1.94-21.92,4.95-11.18,4.79-22.25,9.87-33.66,14.03-8.81,3.21-18.03,5.37-27.17,7.6-3.76.92-5.07-.99-3.17-4.38,2.25-4,5.05-7.68,7.56-11.54,2.77-4.26,5.56-8.51,8.19-12.86,1.48-2.44.14-4.41-2.13-4.95-5.55-1.33-11.08-2.54-15.81-6.03-.53-.39-1.44-.33-2.18-.35-17.23-.6-32.46,5.38-46.13,15.19-5.92,4.25-11.85,5.96-18.82,5.17-4.45-.5-5.73-2.53-3.62-6.53,1.73-3.29,4-6.29,5.99-9.44,3.21-5.08,2.15-6.94-3.97-7.42-7.41-.58-13.86,2.13-20.12,5.6-3,1.66-5.96,3.39-9.42,5.35,0-1.91-.02-3.13,0-4.36.1-6.46-2.41-8.24-8.63-5.93-1.72.64-3.6,1.42-4.83,2.7-4.66,4.83-9.38,9.66-13.54,14.91-6.71,8.47-15.9,12.49-25.78,15.45-1,.3-2.17.04-3.78.04ZM278.82,234.19c.13.47.27.94.4,1.41,6.22-2.07,14.29,2.43,18.97-5.12-.17-.58-.33-1.16-.5-1.75-6.29,1.82-12.58,3.64-18.87,5.46Z"/>
  <path class="cls-9" d="M333.95,227.74c3.47-2.97,6.83-6.08,10.48-8.81.85-.63,2.96-.45,3.99.18,5.66,3.51,11.53,6.25,18.21,7.19,3.53.5,5.55,2.95,6.56,7.06-12.94-1.35-25.5-2.65-38.05-3.96-.4-.55-.8-1.11-1.2-1.66Z"/>
  <path class="cls-7" d="M419.15,234.51c3.52-1.19,6.49-.84,9.59,1.76,7.02,5.91,15.44,5.26,23.82,4.13.12-.02.24-.06.36-.1,7.95-2.45,15.41-2.6,22.46,3.07,2.87,2.31,6.85,3.23,10.33,4.78-5.02-1.61-10.58-2.35-14.89-5.09-4.21-2.68-8.07-2.54-12.37-2.1-3.58.37-7.15.79-10.72,1.21-7.56.9-14.5-.83-21.09-4.58-2.32-1.33-4.98-2.07-7.48-3.08Z"/>
  <path class="cls-7" d="M370.61,222.84c1.17.5,2.95.68,3.4,1.56,3.79,7.25,9.95,10.95,17.69,12.49-8.3.88-13.73-3.51-18.09-9.88-.97-1.41-2-2.79-3-4.18Z"/>
  <path class="cls-7" d="M495.92,250.61c2.7.03,5.4.04,8.1.11,5.69.14,11.38.27,17.07.48,1.14.04,2.26.43,3.39.66-9.12-.2-18.24-.39-27.36-.63-.41-.01-.8-.4-1.2-.62Z"/>
  <path class="cls-7" d="M487.65,289.63c7.01-.68,14.01-1.4,21.03-2.01,1.27-.11,2.59.24,3.88.37-8.15,2.82-16.47,3.21-24.91,1.64Z"/>
  <path class="cls-19" d="M96.6,161.98c.26-.49.52-.98.78-1.48,2.96-.75,4.06-2.72,3.68-5.66.5-.36,1.01-.72,1.51-1.08.25.28.49.56.74.83,1.28.51,2.57,1.03,3.85,1.55-3.52,2.65-7.03,5.29-10.55,7.94,0-.7,0-1.4-.01-2.1Z"/>
  <path class="cls-7" d="M379.4,270.89c7.63,2.19,15.27,4.37,22.9,6.56-5.98-1.42-11.98-2.76-17.93-4.3-1.74-.45-3.32-1.49-4.97-2.26Z"/>
  <path class="cls-7" d="M222.46,282.88c3.63-1.12,7.21-2.43,10.89-3.33,5.35-1.31,10.77-2.34,16.16-3.49-2.78.85-5.53,1.85-8.35,2.53-6.21,1.51-12.46,2.87-18.7,4.29Z"/>
  <path class="cls-22" d="M319.7,267.7c.44-.39.88-1.11,1.32-1.11,7.36.07,14.73.23,22.09.37-7.8.25-15.6.49-23.41.74Z"/>
  <path class="cls-7" d="M345.41,213.02c.64-.78,1.29-1.55,2.05-2.47,2.98,2.71,5.68,5.17,8.38,7.63-2.34-1.16-4.68-2.33-7.03-3.49-1.13-.56-2.27-1.11-3.4-1.67Z"/>
  <path class="cls-24" d="M101.06,154.85c.38,2.94-.72,4.91-3.68,5.66.21-1.11.43-2.22.64-3.33,1.01-.78,2.03-1.55,3.04-2.33Z"/>
  <path class="cls-24" d="M407.64,184.23c.08.82.16,1.65.24,2.47-1.15-.28-2.3-.57-3.45-.85,1.07-.54,2.14-1.08,3.21-1.62Z"/>
  <path class="cls-22" d="M343.06,266.94c1.54.23,3.07.45,4.61.68-1.54-.23-3.07-.45-4.61-.68Z"/>
  <path class="cls-7" d="M402.27,277.42c.94.27,1.88.54,2.81.79-.94-.27-1.88-.53-2.81-.79Z"/>
  <path class="cls-7" d="M355.86,218.19c.25.25.5.49.75.74-.25-.25-.5-.49-.75-.74Z"/>
  <path class="cls-18" d="M437.7,105.7c.74-1.45,1.26-3.07,2.24-4.33,10.87-13.97,21.74-27.92,32.75-41.77,3.49-4.39,7.33-8.5,11.11-12.65,1.08-1.18,2.39-2.25,3.79-3,.89-.47,2.15-.25,3.24-.33-.15,1.12.06,2.49-.52,3.32-1.49,2.14-3.33,4.03-5.03,6.03-10.81,12.75-21.63,25.48-32.4,38.26-1.1,1.31-1.87,2.89-2.35,5.05,1.61-.68,3.32-1.19,4.82-2.07,11.98-7.03,22.76-15.64,32.53-25.5,4.04-4.07,7.76-8.45,11.66-12.67,3.45-3.73,5.16-7.88,3.11-13.1,3.83,1.68,5.02,3.51,3.3,6.84-2.32,4.48-5.05,8.87-8.29,12.73-14.97,17.86-32.48,32.56-53.98,42.06-1.66.73-3.4,1.29-5.11,1.92l-.88-.79Z"/>
  <path class="cls-27" d="M502.68,20.95c-9.21-1.1-16.08,3.17-22.49,9.23-17.78,16.77-35.77,33.32-53.67,49.95-.17-.27-.33-.55-.5-.82,4.2-4.6,8.23-9.38,12.65-13.76,13.84-13.7,27.75-27.34,41.84-40.79,4.36-4.17,10.05-5.99,16.09-5.85,2.02.05,4,1.37,6.01,2.11l.09-.07Z"/>
  <path class="cls-18" d="M524.9,45.36c-7.48,4.14-13.99,1.05-19.04-8.83,5.75-1.25,15.84,3.33,19.04,8.83Z"/>
  <path class="cls-5" d="M531.44,27.56c-7.41-3.54-13.05-8.97-18.14-15.03.23-.46.47-.91.7-1.37,1.57.27,3.44.09,4.67.89,5.81,3.78,10.26,8.83,12.76,15.51Z"/>
  <path class="cls-7" d="M482.67,33.3c4.58-3.64,9.02-7.67,15.24-7.95,2.25-.1,4.54.76,6.82,2-8.87-2.95-14.66,3.4-21.42,6.57-.21-.21-.43-.42-.64-.62Z"/>
  <path class="cls-7" d="M483.31,33.92c-.49.14-.97.28-1.46.42.27-.35.54-.69.82-1.04.21.21.43.42.64.62Z"/>
  <path class="cls-27" d="M426.04,80.59c-.4.07-.8.14-1.2.21.16-.23.32-.47.48-.7.24.16.48.33.72.49Z"/>
  <path class="cls-27" d="M425.32,80.1c.23-.27.47-.53.7-.8.17.27.33.55.5.82-.1.22-.26.37-.48.47-.24-.16-.48-.33-.72-.49Z"/>
  <path class="cls-3" d="M382.72,143.2c.22-.16.43-.32.65-.48-.04.3-.08.61-.13.91-.19-.12-.37-.27-.52-.43Z"/>
  <path class="cls-27" d="M502.6,21.02c.21.16.42.33.63.49-.11.04-.21.09-.32.13-.07-.23-.15-.46-.22-.69,0,0-.09.07-.09.07Z"/>
  <path class="cls-18" d="M127.76,41.98c1.38,1.14,2.98,2.11,4.11,3.46,9.8,11.62,19.55,23.29,29.25,34.99,4.85,5.85,9.65,11.74,14.3,17.75,1.62,2.1,2.72,4.61,4.05,6.94-.21.3-.42.6-.63.89-1.79-.51-3.67-.82-5.35-1.57-19.78-8.75-36.16-22.14-50.74-37.85-3.53-3.8-6.61-8.08-9.52-12.4-1.19-1.76-1.6-4.15-1.98-6.33-.46-2.67.5-4.63,3.88-4.92,0,.63.24,1.43-.04,1.71-3.29,3.37-1.57,6.36.69,9.23,12.81,16.21,28.23,29.45,45.77,40.26,1.51.93,3.26,1.48,4.9,2.21.24-.27.48-.55.72-.82-1.16-1.75-2.16-3.65-3.51-5.24-10.82-12.73-21.68-25.41-32.58-38.07-2.41-2.8-4.68-5.58-4.48-9.42l1.15-.83Z"/>
  <path class="cls-5" d="M118.29,18.97c7.44-1.19,13.97,1.17,19.69,6.9,17.34,17.39,34.87,34.59,52.32,51.88.59.59,1.06,1.3,1.05,2.64-.95-.72-1.97-1.37-2.83-2.19-13.87-13.1-27.67-26.26-41.59-39.3-4.54-4.25-9.1-8.59-14.17-12.14-4.56-3.19-9.84-5.36-14.45-7.8Z"/>
  <path class="cls-18" d="M92.43,44.34c4.81-4.87,10.47-7.16,16.73-8.17.43-.07,1.63,1.61,1.53,1.74-2.24,2.86-4.12,6.61-7.11,8.11-3.12,1.57-7.4,1.3-11.15-1.68Z"/>
  <path class="cls-18" d="M85.9,26.85c.38-.98.51-2.2,1.17-2.91,3.81-4.05,7.65-8.09,11.72-11.86.81-.75,2.69-.34,4.07-.46-.35,1.21-.36,2.72-1.11,3.58-4.31,4.94-8.68,9.89-14.98,12.35-.29-.23-.58-.46-.87-.69Z"/>
  <path class="cls-7" d="M135.46,34.13c-7.39-2.43-13.29-9.16-22.22-6.19-.08-.44-.15-.88-.23-1.32,1.61-.53,3.28-1.63,4.83-1.48,7.03.64,12.54,4.54,17.63,8.99Z"/>
  <path class="cls-3" d="M217.26,114.4l3.37,3.07c-.49.51-.97,1.02-1.46,1.53l-2.47-3.98c.19-.21.37-.41.56-.62Z"/>
  <path class="cls-3" d="M162.4,69.14c-.16-.39-.33-.77-.49-1.16.35.16.71.32,1.06.48-.19.23-.38.45-.58.68Z"/>
  <path class="cls-3" d="M202.51,323.53c-.51.12-1.02.23-1.53.35.24-.36.48-.72.72-1.07.27.24.54.48.82.72Z"/>
  <path class="cls-3" d="M216.01,316.04c-.34.08-.68.15-1.02.23.17-.24.35-.49.52-.73.17.17.34.34.5.51Z"/>
  <path class="cls-3" d="M310.9,99.02c-.26-.79-.52-1.59-.78-2.38.26.79.52,1.59.78,2.38Z"/>
  <path class="cls-3" d="M415.57,323.58c.2.35.41.7.61,1.05-.44-.16-.88-.33-1.32-.49.24-.19.48-.37.71-.56Z"/>
  <path class="cls-13" d="M96.62,164.08c3.52-2.65,7.03-5.29,10.55-7.94.49-.52.98-1.05,1.47-1.57,1.54-.73,3.17-1.3,4.6-2.21,13.99-8.88,28.85-15.7,45.11-19.18,11.7-2.5,23.46-2.88,35.05.39,10.06,2.84,19.01,9.96,18.67,23.29-.34,13.14-7.19,23.63-18.37,26.36-3.05.74-6.5.7-9.6.13-5.52-1.01-6.44-3.57-4.46-8.91,1.32-3.57,2.73-7.3,2.97-11.03.52-8.27-3.73-12.42-12.03-12.68-9.61-.3-18.68,2.1-27.48,5.65-18.92,7.64-33.47,20.98-46.06,36.54-13.73,16.97-24.44,35.72-29.79,57.08-1.36,5.44-1.98,11.39-1.38,16.94,1.35,12.63,9.03,19.12,21.75,19.54,13.24.44,26.11-2.13,38.71-5.7,24.54-6.94,48.92-14.46,73.41-21.6,29.34-8.55,59.09-15.14,89.52-18.37,40.04-4.25,79.36-1.03,117.98,10.7,14.99,4.55,30.16,8.54,45.35,12.41,16.42,4.18,33.27,4.99,50.13,5.21,14.35.19,28.71.22,43.07.35,1.33.01,2.67.15,4.13.91-.94.41-1.85.89-2.82,1.21-23.47,7.85-47.47,12.53-72.32,11.74-25.98-.82-51.19-6.14-75.93-13.79-30.13-9.33-60.91-11.26-92.15-8.92-44.06,3.3-86.28,14.73-128.08,28.36-25.65,8.36-51.53,16.08-77.55,23.23-15.1,4.15-30.62,5.19-46.27,1.61-15.7-3.59-23.96-13.79-27.05-28.86-3.1-15.09,1.15-29.07,7.09-42.72,11.15-25.6,28.1-46.94,48.26-65.92,3.99-3.76,8.09-7.4,12.13-11.09.46-.38.92-.76,1.39-1.15Z"/>
  <path class="cls-2" d="M290.23,212.15c1.61,0,2.78.26,3.78-.04,9.88-2.97,19.07-6.98,25.78-15.45,4.16-5.25,8.87-10.08,13.54-14.91,1.23-1.27,3.11-2.06,4.83-2.7,6.22-2.31,8.73-.53,8.63,5.93-.02,1.23,0,2.46,0,4.36,3.45-1.97,6.41-3.69,9.42-5.35,6.26-3.46,12.71-6.18,20.12-5.6,6.11.48,7.17,2.34,3.97,7.42-1.99,3.15-4.26,6.15-5.99,9.44-2.11,4-.83,6.02,3.62,6.53,6.97.79,12.89-.91,18.82-5.17,13.67-9.82,28.9-15.79,46.13-15.19.74.03,1.65-.04,2.18.35,4.72,3.49,10.25,4.7,15.81,6.03,2.27.54,3.61,2.51,2.13,4.95-2.63,4.35-5.42,8.6-8.19,12.86-2.51,3.86-5.32,7.54-7.56,11.54-1.9,3.39-.6,5.3,3.17,4.38,9.14-2.23,18.35-4.39,27.17-7.6,11.41-4.15,22.49-9.24,33.66-14.03,7.02-3.01,14.11-5.62,21.92-4.95,1.83.16,3.79.4,5.38,1.22,1.66.85,3.93,2.32,4.1,3.75.17,1.36-1.73,3.43-3.22,4.46-2.74,1.9-5.96,3.1-8.75,4.95-1.22.81-2.48,2.42-2.65,3.8-.79,6.26-1.19,12.57-1.76,19.17,10.12-.69,19.53-1.34,29.5-2.02-1.31,5.24-3.87,8.87-8.5,10.43-3.62,1.22-7.44,2.16-11.24,2.49-15.43,1.31-30.88,1.84-46.25-.95-6.76-1.23-12.82-3.93-17.91-8.63-2.91-2.69-5.6-3.31-9.98-2.28-7.91,1.86-16.26,2.32-24.43,2.36-2.44.01-5.24-2.98-7.25-5.17-2.2-2.38-4.05-3.24-7.34-2.19-9.66,3.07-19.52,4.91-29.79,3.97-6.85-.63-11.73-3.24-13.9-10.28-.52-1.69-2.83-3.4-4.67-3.97-3.53-1.1-7.32-1.34-10.98-2.04-5.64-1.08-9.57-3.92-10.3-10.12-.15-1.29-.85-2.52-1.48-4.26-2.54,2.24-4.82,4.13-6.97,6.15-6.28,5.9-12.34,12.05-18.82,17.71-3.13,2.73-6.77,5.21-10.6,6.73-6.56,2.6-10.35-.15-10.73-7.08-.16-2.89-1.8-2.91-3.84-2.33-9.44,2.68-19.14,4.69-28.23,8.25-18.89,7.38-38.41,7.78-58.17,7.02-1.46-.06-2.92-.44-5.12-.79,2.41-5.1,4.68-9.76,6.82-14.47,1.28-2.81,2.44-5.69,3.49-8.59.87-2.41-.23-4.11-2.42-5.15-.89-.42-1.85-.71-2.79-1.02-6.31-2.06-7.19-1.14-8.55,5.4-.88,4.27-2.31,8.91-4.93,12.25-13.97,17.81-32.54,27.6-55.1,28.93-11.22.66-15.66-6.09-11.86-16.73,3.94-11.04,11.72-19.09,21.25-25.34,17.56-11.51,36.85-17.21,57.96-15.5,3.75.3,7.5,1.66,11.05,3.03,2.9,1.12,4.48.49,6.18-2.02,7.75-11.44,15.26-23.08,23.63-34.06,10.12-13.28,22.48-23.85,39.26-28.11,4.48-1.14,8.73-1.47,13.04.4,4.61,2.01,6.1,4.86,5.1,9.85-1.16,5.76-3.61,10.93-7.9,14.92-6.21,5.77-12.8,11.13-19.03,16.87-1.79,1.65-2.93,4.01-4.37,6.05,2.25.83,4.49,1.72,6.77,2.46,1.64.53,3.41.69,5.01,1.31,4.48,1.74,6.55,6.08,4.86,10.6-1.43,3.83-3.28,7.5-4.89,11.26-.57,1.33-.97,2.72-1.6,4.52ZM267.09,196.74c-13.85-.16-29.87,12.78-32.62,26.35-.83,4.09.21,5.21,4.46,4.73,1.36-.15,2.72-.35,4.06-.59,13.32-2.35,23.46-9.27,29.8-21.31,3.22-6.11,1.22-9.1-5.71-9.17ZM160.06,240.85c3.25-1.1,6.88-1.62,9.68-3.42,8.14-5.24,14.09-12.58,17.62-21.62.75-1.92.86-5.36-.29-6.42-1.39-1.29-4.75-1.67-6.69-.94-12.1,4.56-20.8,12.84-25.43,25.08-1.95,5.16-.64,6.84,5.11,7.33ZM408.98,220.53c2.85-1.1,6.36-1.5,8.41-3.44,6.45-6.13,12.45-12.76,18.38-19.42.89-1,.48-3.16.68-4.79-1.53.04-3.33-.44-4.55.19-6.47,3.36-13.12,6.54-19.03,10.73-3.47,2.46-6.18,6.41-8.3,10.21-1.96,3.53.08,5.91,4.42,6.52ZM261.17,176.23c.46.36.92.71,1.38,1.07,3.02-1.8,6.18-3.39,9.02-5.44,7.91-5.71,15.1-12.2,19.63-21.04.67-1.31.14-3.24.16-4.89-1.57.3-3.48.14-4.67.99-9.58,6.86-17.75,15.14-24.1,25.12-.77,1.21-.96,2.78-1.42,4.19ZM507.38,217.47c-8.33-.54-14.89,2.87-21.51,5.87-3.94,1.79-4.01,3.93-.37,6.47,4.39,3.06,9.39,3.97,14.14,1.51,5.16-2.67,6.76-7.89,7.74-13.85Z"/>
  <path class="cls-14" d="M221.11,246.14c-3.96,1.32-7.9,2.72-11.89,3.95-27.58,8.52-55.14,17.13-82.78,25.47-13.56,4.09-27.49,5.59-41.7,4.97-7.05-.31-13.53-6.79-13.75-14.96-.29-10.97,2.91-21.13,7.9-30.82,2.67-5.19,4.8-10.67,7.6-15.79,2.3-4.21,5.12-8.15,7.91-12.06,3.12-4.38,6.16-8.89,9.8-12.83,4.98-5.39,10.51-10.28,15.76-15.42,6.78-6.63,14.97-11.06,23.45-14.99,2.5-1.16,5.21-1.85,7.83-2.76,5.67-.7,11.33-1.42,17.01-2.1,1.87-.22,3.76-.36,5.64-.53,4,2.02,4.79,3.9,3.44,8.98-.8,3-1.84,5.93-2.82,8.87-2.24,6.76-.21,13.38,7.72,13.83.66.04,1.3.59,2.74,1.3-1.64.75-2.62,1.34-3.68,1.65-18.48,5.41-34.71,14.33-46.58,29.99-4.37,5.77-7.01,12.33-7.86,19.52-.42,3.53.25,6.87,2.93,9.64,3.14,3.25,5.62,7.67,10.63,7.95,4.57.26,9.28-.03,13.79-.85,15.35-2.79,28.34-10.69,40.69-19.76,2.56-1.88,4.78-4.2,8.06-7.13-.3,5.16.75,8.77,5.27,10.1,1.22.47,2.42,1.04,3.68,1.39,3.06.85,6.14,1.6,9.21,2.39ZM141.3,265.57c-2.88-1.29-5.46-2.5-8.07-3.62-4.66-2.01-8.26-5.3-8.68-10.4-.46-5.51-1.05-11.5.56-16.6,6.46-20.4,21.27-33.18,40.44-41.31,3.11-1.32,4.71-2.78,4.62-6.2-.16-6.32-.7-12.58,1.88-18.79,1.76-4.23-.55-6.14-5.3-5.53-13.53,1.72-25.72,6.83-36.81,14.62-21.07,14.79-36.01,34.73-47.24,57.56-4.4,8.96-7.36,18.57-7.69,28.71-.23,7.27,1.95,9.92,8.99,11.57,1.44.34,2.97.49,4.45.46,15.82-.29,31.13-3.49,46.11-8.41,2.08-.69,4.2-1.29,6.74-2.06ZM184.2,252.71c.21.31.41.62.62.92,6.85-2.12,13.7-4.24,20.55-6.35-.01-.36-.03-.72-.04-1.08-2.78-1.49-4.86-5.56-8.84-2.96-4.32,2.81-8.21,6.28-12.28,9.47Z"/>
  <path class="cls-12" d="M278.82,234.19c6.29-1.82,12.58-3.64,18.87-5.46.17.58.33,1.16.5,1.75-4.68,7.54-12.75,3.05-18.97,5.12-.13-.47-.27-.94-.4-1.41Z"/>
  <path class="cls-7" d="M173.89,158.26c-1.88.17-3.76.3-5.64.53-5.67.68-11.34,1.4-17.01,2.1,2.66-1.01,5.26-2.68,7.98-2.89,4.85-.38,9.77.13,14.66.26Z"/>
  <path class="cls-7" d="M221.11,246.14c-3.07-.79-6.16-1.54-9.21-2.39-1.26-.35-2.45-.92-3.68-1.39,5.15.52,10.3,1.04,15.44,1.56,0,.4.01.8.02,1.2-.86.34-1.72.68-2.58,1.01Z"/>
  <path class="cls-24" d="M108.64,154.57c-.49.52-.98,1.05-1.47,1.57-1.28-.52-2.57-1.03-3.85-1.55,1.77,0,3.55-.02,5.32-.03Z"/>
  <path class="cls-24" d="M96.62,164.08c-.46.38-.92.76-1.39,1.15.46-1.08.92-2.16,1.37-3.24,0,.7,0,1.4.01,2.1Z"/>
  <path class="cls-25" d="M267.09,196.74c6.93.08,8.93,3.06,5.71,9.17-6.34,12.04-16.47,18.97-29.8,21.31-1.35.24-2.71.43-4.06.59-4.25.48-5.29-.63-4.46-4.73,2.74-13.56,18.76-26.5,32.62-26.35ZM265.18,207.16c.65-1.16,1.29-2.32,1.94-3.48-.25-.34-.5-.68-.75-1.02-2.37.67-4.74,1.33-7.11,2-6.86,2.03-11.31,7.13-15.54,12.43-.61.77-.83,2.65-.32,3.31.55.71,2.37,1.08,3.3.73,7.48-2.85,14.49-6.44,18.48-13.97Z"/>
  <path class="cls-25" d="M160.06,240.85c-5.75-.49-7.06-2.17-5.11-7.33,4.63-12.24,13.32-20.53,25.43-25.08,1.94-.73,5.31-.35,6.69.94,1.15,1.07,1.04,4.51.29,6.42-3.53,9.05-9.48,16.38-17.62,21.62-2.8,1.8-6.43,2.32-9.68,3.42ZM161.42,234.43c6.11.76,19.47-12.17,18.9-18.29-5.73.18-19.05,13.07-18.9,18.29Z"/>
  <path class="cls-8" d="M408.98,220.53c-4.34-.61-6.39-2.99-4.42-6.52,2.12-3.8,4.83-7.75,8.3-10.21,5.91-4.19,12.57-7.37,19.03-10.73,1.22-.64,3.02-.16,4.55-.19-.19,1.63.22,3.79-.68,4.79-5.93,6.66-11.92,13.29-18.38,19.42-2.05,1.95-5.57,2.34-8.41,3.44Z"/>
  <path class="cls-8" d="M261.17,176.23c.46-1.41.65-2.98,1.42-4.19,6.35-9.98,14.52-18.26,24.1-25.12,1.19-.85,3.09-.68,4.67-.99-.02,1.64.51,3.58-.16,4.89-4.53,8.85-11.72,15.33-19.63,21.04-2.84,2.05-6,3.64-9.02,5.44-.46-.36-.92-.71-1.38-1.07Z"/>
  <path class="cls-8" d="M507.38,217.47c-.98,5.96-2.58,11.17-7.74,13.85-4.75,2.46-9.75,1.55-14.14-1.51-3.64-2.54-3.57-4.69.37-6.47,6.62-3,13.19-6.41,21.51-5.87Z"/>
  <path class="cls-1" d="M141.3,265.57c-2.54.77-4.66,1.37-6.74,2.06-14.99,4.93-30.29,8.12-46.11,8.41-1.48.03-3.01-.12-4.45-.46-7.04-1.64-9.22-4.3-8.99-11.57.32-10.14,3.28-19.75,7.69-28.71,11.22-22.84,26.16-42.78,47.24-57.56,11.1-7.79,23.29-12.9,36.81-14.62,4.75-.61,7.06,1.3,5.3,5.53-2.58,6.21-2.04,12.47-1.88,18.79.09,3.42-1.51,4.88-4.62,6.2-19.16,8.12-33.97,20.91-40.44,41.31-1.62,5.1-1.02,11.09-.56,16.6.42,5.1,4.02,8.39,8.68,10.4,2.61,1.12,5.19,2.33,8.07,3.62ZM160.96,170.14c-10.42,3.47-20.13,7.61-28.53,14.08-19.76,15.23-33.81,34.99-44.1,57.55-3,6.58-5.24,13.36-5.35,20.76-.05,3.38,1.32,4.54,4.37,4.39,5.73-.29,11.47-.4,17.17-1,5.15-.54,10.25-1.64,15.87-2.57-1.22-3.01-2.17-5.4-3.17-7.78-2.36-5.63-3.19-11.43-2.27-17.52,1.92-12.69,8.3-23.01,16.82-32.22,6.68-7.21,14.65-12.72,23.15-17.53,3.02-1.71,5.77-3.71,6-7.52.2-3.35.04-6.72.04-10.64Z"/>
  <path class="cls-15" d="M184.2,252.71c4.08-3.18,7.96-6.66,12.28-9.47,3.99-2.6,6.06,1.48,8.84,2.96.01.36.03.72.04,1.08-6.85,2.12-13.7,4.24-20.55,6.35-.21-.31-.41-.62-.62-.92Z"/>
  <path class="cls-11" d="M265.18,207.16c-3.98,7.53-10.99,11.11-18.48,13.97-.93.36-2.75-.02-3.3-.73-.51-.66-.3-2.54.32-3.31,4.23-5.3,8.67-10.4,15.54-12.43,2.27.13,4.88-.54,5.92,2.5Z"/>
  <path class="cls-7" d="M265.18,207.16c-1.04-3.04-3.65-2.37-5.92-2.5,2.37-.67,4.74-1.33,7.11-2,.25.34.5.68.75,1.02-.65,1.16-1.29,2.32-1.94,3.48Z"/>
  <path class="cls-11" d="M161.42,234.43c-.15-5.22,13.17-18.12,18.9-18.29.57,6.13-12.79,19.05-18.9,18.29Z"/>
  <path class="cls-28" d="M160.96,170.14c0,3.92.16,7.29-.04,10.64-.23,3.81-2.98,5.81-6,7.52-8.5,4.81-16.47,10.31-23.15,17.53-8.53,9.21-14.9,19.53-16.82,32.22-.92,6.09-.09,11.88,2.27,17.52,1,2.38,1.95,4.78,3.17,7.78-5.62.93-10.72,2.03-15.87,2.57-5.69.6-11.44.71-17.17,1-3.05.15-4.42-1.01-4.37-4.39.11-7.4,2.36-14.19,5.35-20.76,10.29-22.56,24.35-42.32,44.1-57.55,8.39-6.47,18.11-10.61,28.53-14.08Z"/>
</svg>