<?xml version="1.0" encoding="UTF-8"?>
<svg id="Layer_1" data-name="Layer 1" xmlns="http://www.w3.org/2000/svg" viewBox="0 0 636 200">
  <defs>
    <style>
      .cls-1 {
        fill: #000;
      }

      .cls-1, .cls-2 {
        stroke-width: 0px;
      }

      .cls-2 {
        fill: #fff;
      }
    </style>
  </defs>
  <path class="cls-2" d="M316.25,200h-30.98c5.29-5.57,10.51-11.22,15.93-16.67,1.49-1.5,2.03-2.93,2.02-4.97-.06-22.77-.11-45.54.03-68.31.02-3.9-.15-7.36-3.75-9.75-1.14-.76-1.05-1.73-.02-2.67,1.1-1.01,2.31-1.98,3.15-3.18.75-1.07,1.5-2.44,1.5-3.68.07-23.52.05-47.04-.02-70.56,0-.87-.44-1.94-1.04-2.56-4.47-4.59-9.01-9.1-13.56-13.61-2.45-2.43-5.12-3.66-8.89-3.62-22.8.23-45.61.12-68.42.12q-3.28,0-3.28,3.25c0,64.24,0,128.48,0,192.73,0,1.16-.05,2.32-.07,3.49h-29.98c2.08-2.21,4.13-4.45,6.26-6.61,3.62-3.67,7.34-7.25,10.92-10.96.66-.68,1.2-1.81,1.2-2.74.06-52.46.05-104.91.02-157.37,0-.81-.31-1.81-.83-2.4-3.2-3.65-6.51-7.21-9.78-10.81-1.94-2.13-4.08-4.13-5.74-6.46-1.09-1.54-2.15-2.16-4.01-2.15-17.57.06-35.14.19-52.7-.09-3.98-.06-6.05,1.88-8.17,4.45-.36.43-.63.94-1.02,1.36-4.17,4.52-8.38,9-12.5,13.56-.54.6-.87,1.61-.87,2.43,0,2.21.36,4.43.37,6.64.02,49.38.07,98.76-.09,148.14-.01,3.66,1.5,5.82,3.9,7.97,2.39,2.13,4.71,4.35,6.97,6.61,2.76,2.76,5.42,5.62,8.12,8.44h-41.47c5.14-5.58,10.31-11.12,15.37-16.76.79-.88,1.47-2.23,1.48-3.36.11-11.64.07-23.28.06-34.92,0-.71-.09-1.42-.14-2.06h-39.27v17.11h-17.41V40.01h19.62v9.09c.43.08.66.17.9.17,11.41.01,22.82-.02,34.22.05,1.96.01,2.1-.98,2.1-2.5-.04-8.23-.15-16.46.05-24.69.08-3.16-.78-5.46-3.14-7.6-3.96-3.6-7.94-7.26-11.31-11.38-1.81-2.21-3.53-2.66-6.05-2.65-16.65.07-33.31.21-49.96-.07-4.56-.08-7.72,1.33-10.8,4.56C10.35,10.03,5.08,14.63,0,19.42,0,12.94,0,6.46,0,0h636c0,66.69,0,133.34,0,200h-19.98c2.62-2.57,5.28-5.11,7.87-7.71,2.9-2.92,5.89-5.78,8.56-8.9,1.18-1.38,3.03-2.32,3.02-4.76-.09-26.51-.05-53.03-.07-79.54,0-.63.02-1.48-.35-1.85-2.26-2.25-4.68-4.36-6.96-6.59-2.59-2.54-5.07-5.2-7.64-7.75-2.19-2.17-4.05-4.33-7.88-4.19-10.23.37-20.47.13-30.71.13-.89,0-1.77,0-2.74,0v-38.91h18.04v7.66h38.26c0-9.55,0-18.93,0-28.31,0-.39,0-.89-.22-1.14-1.31-1.45-2.7-2.82-4.04-4.24-2.82-2.97-5.53-6.07-8.48-8.9-2.09-2.01-3.57-4.62-7.41-4.57-17.73.24-35.46.11-53.19.1-2.26,0-4.39-.13-5.73,2.37-.7,1.29-2.07,2.23-3.15,3.31-4.39,4.39-8.84,8.73-13.15,13.2-.76.79-1.34,2.15-1.34,3.25-.07,25.27-.08,50.53,0,75.8,0,1.34.62,3.03,1.56,3.95,4.76,4.69,9.68,9.23,14.65,13.71.87.78,2.24,1.42,3.38,1.43,11.49.1,22.97.06,34.46.06.88,0,1.77,0,2.72,0v41.94h-18.04v-7.83c-12.53,0-24.75.02-36.97-.02-1.69,0-1.84.92-1.83,2.24.03,5.65.5,11.36-.11,16.94-.78,7.19,1.39,12.54,7.09,16.99,3.51,2.74,6.5,6.18,9.44,9.56,1.14,1.31,2.06,2.04,3.83,2.03,2.06-.02,4.12.35,6.18.55h-45.46c.73-.2,1.45-.56,2.19-.58,2.31-.08,4.62-.03,7.28-.03-.22-4.68-.42-9.1-.65-13.52-.1-1.97-.21-3.94-.41-5.89-.65-6.09-1.45-12.17-2.01-18.27-.6-6.53-.96-13.09-1.49-19.63-.64-7.92-1.36-15.83-2-23.75-.52-6.38-.96-12.76-1.48-19.14-.65-7.92-1.34-15.83-2-23.74-.51-6.05-1-12.09-1.5-18.14-.5-6.04-1-12.08-1.5-18.12-.5-5.96-1-11.93-1.5-17.89-.5-6.04-1.16-12.07-1.42-18.12-.1-2.33-.93-2.69-2.96-2.68-20.98.06-41.96.04-62.94.04-3.51,0-3.83.43-3.99,3.94-.21,4.42-.53,8.84-.97,13.25-.76,7.72-1.65,15.43-2.47,23.15-.23,2.2-.31,4.42-.57,6.61-.61,5.1-1.4,10.18-1.93,15.28-.46,4.4-.55,8.84-1.03,13.24-.73,6.65-1.71,13.27-2.49,19.91-.73,6.24-1.36,12.5-2.01,18.75-.85,8.21-1.73,16.42-2.49,24.63-.58,6.21-.98,12.43-1.48,18.64-.17,2.12-.34,4.24-.59,6.36-.62,5.27-1.34,10.52-1.91,15.79-.58,5.28-1.02,10.57-1.55,15.86-.11,1.08-.38,2.14-.62,3.44,2.66,0,4.9-.07,7.13.03,1.15.05,2.29.38,3.44.58h-22.48c-.97-6.35-1.92-12.71-2.9-19.06-.72-4.66-1.5-9.31-2.18-13.98-.57-3.96-.93-7.94-1.54-11.89-.91-5.86-1.98-11.69-2.93-17.54-1-6.18-1.87-12.38-2.91-18.55-.53-3.17-.65-5.85,2.39-8.21,3.19-2.48,5.84-5.67,8.74-8.53,1.51-1.5,2.31-3.14,2.3-5.41-.09-25.43-.1-50.86-.05-76.28,0-1.71-.44-2.92-1.69-4.1-4.66-4.35-9.53-8.54-13.7-13.33-2.11-2.43-4.22-2.6-6.87-2.6-23.47.03-46.94.01-70.41.01-.96,0-1.93,0-3.02,0v3.03c0,64.15,0,128.3,0,192.46,0,1.33-.09,2.65-.13,3.98Z"/>
  <path class="cls-1" d="M565.06,200c-2.06-.2-4.12-.58-6.18-.55-1.77.02-2.69-.71-3.83-2.03-2.94-3.38-5.93-6.83-9.44-9.56-5.7-4.45-7.88-9.8-7.09-16.99.61-5.59.14-11.29.11-16.94,0-1.32.14-2.24,1.83-2.24,12.22.04,24.45.02,36.97.02v7.83h18.04v-41.94c-.95,0-1.83,0-2.72,0-11.49,0-22.98.04-34.46-.06-1.14-.01-2.51-.65-3.38-1.43-4.97-4.48-9.88-9.02-14.65-13.71-.93-.92-1.55-2.61-1.56-3.95-.09-25.27-.08-50.53,0-75.8,0-1.1.57-2.45,1.34-3.25,4.31-4.47,8.76-8.81,13.15-13.2,1.08-1.08,2.45-2.02,3.15-3.31,1.34-2.5,3.47-2.37,5.73-2.37,17.73.02,35.46.14,53.19-.1,3.84-.05,5.31,2.56,7.41,4.57,2.95,2.84,5.66,5.93,8.48,8.9,1.34,1.42,2.73,2.79,4.04,4.24.22.25.22.75.22,1.14.01,9.38,0,18.76,0,28.31h-38.26v-7.66h-18.04v38.91c.96,0,1.85,0,2.74,0,10.24,0,20.49.25,30.71-.13,3.83-.14,5.7,2.03,7.88,4.19,2.58,2.55,5.05,5.21,7.64,7.75,2.28,2.24,4.7,4.34,6.96,6.59.37.37.35,1.22.35,1.85.02,26.51-.02,53.03.07,79.54,0,2.44-1.84,3.38-3.02,4.76-2.67,3.12-5.66,5.98-8.56,8.9-2.59,2.6-5.24,5.14-7.87,7.71h-50.96ZM628.61,139.19c0-11.97.06-23.94-.08-35.91-.02-1.46-.82-3.22-1.83-4.31-3.5-3.78-7.3-7.29-10.87-11-1.26-1.3-2.56-1.86-4.37-1.85-12.24.06-24.48-.02-36.72.08-2.14.02-2.9-.53-2.89-2.77.08-15.88.08-31.76,0-47.63-.01-2.24.63-3.07,2.97-3.03,7.74.12,15.49.04,23.23.04,5.78,0,5.84,0,5.94,5.64.03,1.78.57,2.52,2.45,2.5,6.58-.08,13.16-.08,19.73,0,1.87.02,2.48-.69,2.46-2.49-.07-4.99.05-9.98-.09-14.96-.03-1.12-.56-2.46-1.31-3.29-3.41-3.75-6.91-7.42-10.54-10.97-.83-.82-2.28-1.42-3.44-1.42-16.57-.09-33.14-.09-49.71,0-1.25,0-2.81.61-3.7,1.47-4.31,4.16-8.49,8.45-12.58,12.82-.76.81-1.33,2.16-1.33,3.27-.07,23.53-.08,47.05.01,70.58,0,1.15.71,2.55,1.54,3.39,3.2,3.26,6.61,6.32,9.89,9.5,1.45,1.41,3.03,2.03,5.12,2.01,12.49-.09,24.98,0,37.47-.08,2.06-.01,2.72.62,2.71,2.69-.07,16.79-.07,33.59,0,50.38,0,2.19-.69,2.88-2.87,2.85-7.91-.1-15.82-.04-23.73-.04-5.4,0-5.47,0-5.44-5.34.01-1.96-.47-2.84-2.64-2.8-6.49.11-12.99.09-19.48,0-1.91-.02-2.7.55-2.67,2.55.09,5.07-.03,10.14.09,15.21.02.96.51,2.12,1.18,2.83,3.87,4.12,7.8,8.18,11.85,12.13.79.77,2.15,1.34,3.25,1.35,16.23.2,32.46.32,48.69.35,1.17,0,2.61-.61,3.47-1.42,4.22-4.01,8.24-8.23,12.43-12.27,1.38-1.33,1.85-2.77,1.84-4.64-.06-11.8-.03-23.61-.03-35.41Z"/>
  <path class="cls-1" d="M316.25,200c.05-1.33.13-2.65.13-3.98,0-64.15,0-128.3,0-192.46V.53c1.09,0,2.06,0,3.02,0,23.47,0,46.94.01,70.41-.01,2.65,0,4.76.17,6.87,2.6,4.17,4.79,9.04,8.98,13.7,13.33,1.26,1.17,1.7,2.38,1.69,4.1-.04,25.43-.04,50.86.05,76.28,0,2.28-.79,3.92-2.3,5.41-2.9,2.87-5.54,6.05-8.74,8.53-3.03,2.36-2.92,5.04-2.39,8.21,1.04,6.17,1.91,12.37,2.91,18.55.94,5.85,2.02,11.68,2.93,17.54.61,3.95.97,7.94,1.54,11.89.67,4.67,1.46,9.32,2.18,13.98.98,6.35,1.94,12.7,2.9,19.06h-40.47c-.18-1.94-.27-3.9-.57-5.83-.73-4.65-1.62-9.27-2.33-13.93-.93-6.11-1.68-12.25-2.62-18.36-.89-5.77-2-11.51-2.88-17.29-1.29-8.42-2.45-16.86-3.68-25.34h-3.51c0,1.1,0,2.07,0,3.04,0,23.16,0,46.32,0,69.49,0,2.74.07,5.48.1,8.21h-38.97ZM323.04,100.34c0,29.76,0,59.53,0,89.29,0,3.35.01,3.36,3.27,3.37,6,0,11.99,0,17.99,0q3.98,0,3.98-3.89c0-24.44,0-48.88,0-73.33q0-3.71,3.83-3.71c3.08,0,6.17.17,9.24-.05,2.54-.19,3.41.77,3.78,3.21,3.75,25.05,7.63,50.08,11.36,75.14.33,2.21,1.22,2.7,3.21,2.67,6.74-.08,13.49-.02,20.23-.04,2.95,0,3.17-.23,2.72-3.17-2.04-13.3-4.11-26.59-6.19-39.89-1.86-11.9-3.72-23.8-5.62-35.69-.29-1.81.17-3.1,1.52-4.41,3.7-3.59,7.17-7.41,10.84-11.02,1.49-1.46,2-3.03,1.99-5.09-.02-23.61.05-47.22.02-70.83,0-.93-.53-2.08-1.18-2.76-3.48-3.58-7.12-7-10.61-10.57-1.33-1.36-2.74-1.87-4.63-1.86-20.73.06-41.47.04-62.2.04-3.54,0-3.55,0-3.55,3.56,0,29.68,0,59.36,0,89.04Z"/>
  <path class="cls-1" d="M0,19.42c5.08-4.79,10.35-9.4,15.17-14.44C18.24,1.76,21.4.35,25.97.42c16.65.28,33.31.15,49.96.07,2.52-.01,4.24.44,6.05,2.65,3.37,4.13,7.35,7.78,11.31,11.38,2.36,2.14,3.22,4.44,3.14,7.6-.2,8.23-.09,16.46-.05,24.69,0,1.52-.13,2.51-2.1,2.5-11.41-.07-22.82-.04-34.22-.05-.24,0-.47-.09-.9-.17v-9.09h-19.62v120h17.41v-17.11h39.27c.04.63.14,1.34.14,2.06,0,11.64.05,23.28-.06,34.92-.01,1.14-.69,2.48-1.48,3.36-5.06,5.65-10.23,11.19-15.37,16.76H17.99c-.51-.63-.96-1.32-1.53-1.89-3.4-3.42-6.84-6.79-10.24-10.21C4.13,185.81,2.07,183.67,0,181.54c0-54.04,0-108.08,0-162.12ZM7.02,100.73c0,24.94-.03,49.87.07,74.81,0,1.58.62,3.52,1.64,4.67,3.53,3.97,7.32,7.72,11.14,11.42.79.76,2.16,1.31,3.26,1.32,16.9.08,33.8.09,50.7,0,1.17,0,2.63-.61,3.46-1.43,3.65-3.64,7.16-7.42,10.59-11.26.7-.78,1.21-2.02,1.22-3.06.1-8.39.01-16.79.09-25.18.02-1.82-.52-2.49-2.4-2.46-6.74.09-13.49.1-20.23,0-1.95-.03-2.4.73-2.35,2.5.1,3.9.03,7.81.03,11.72q0,3.58-3.71,3.58c-8.07,0-16.15,0-24.22,0q-3.83,0-3.83-3.77c0-42.31,0-84.61,0-126.92,0-.66-.21-1.45.07-1.97.38-.72,1.13-1.77,1.73-1.78,9.9-.11,19.81-.11,29.72,0,.6,0,1.6,1.06,1.7,1.74.26,1.62.17,3.32.08,4.97-.1,1.79.55,2.52,2.43,2.5,6.24-.08,12.49-.08,18.73,0,1.78.02,2.28-.64,2.26-2.33-.08-5.57-.11-11.14.02-16.71.04-1.85-.63-3.12-1.87-4.37-3.05-3.06-5.92-6.3-9.06-9.26-.96-.91-2.56-1.61-3.87-1.62-16.4-.11-32.8-.04-49.2-.11-1.93,0-3.3.64-4.62,1.93-3.62,3.55-7.23,7.11-11.02,10.48-1.83,1.63-2.61,3.33-2.61,5.81.08,24.93.05,49.87.05,74.81Z"/>
  <path class="cls-1" d="M433.66,200c-1.15-.2-2.29-.53-3.44-.58-2.23-.09-4.47-.03-7.13-.03.24-1.3.51-2.36.62-3.44.54-5.28.97-10.58,1.55-15.86.58-5.27,1.29-10.52,1.91-15.79.25-2.11.42-4.24.59-6.36.5-6.21.9-12.43,1.48-18.64.76-8.22,1.64-16.42,2.49-24.63.65-6.25,1.28-12.51,2.01-18.75.78-6.64,1.76-13.26,2.49-19.91.48-4.4.57-8.84,1.03-13.24.54-5.11,1.32-10.19,1.93-15.28.26-2.19.34-4.41.57-6.61.81-7.72,1.71-15.43,2.47-23.15.43-4.41.76-8.83.97-13.25.16-3.51.48-3.94,3.99-3.94,20.98,0,41.96.02,62.94-.04,2.03,0,2.86.35,2.96,2.68.26,6.05.91,12.08,1.42,18.12.5,5.96,1,11.93,1.5,17.89.5,6.04,1,12.08,1.5,18.12.5,6.05.99,12.09,1.5,18.14.66,7.91,1.36,15.83,2,23.74.52,6.38.96,12.76,1.48,19.14.65,7.92,1.37,15.83,2,23.75.53,6.54.89,13.1,1.49,19.63.56,6.1,1.36,12.18,2.01,18.27.21,1.96.31,3.93.41,5.89.23,4.42.43,8.84.65,13.52-2.66,0-4.98-.05-7.28.03-.74.02-1.46.38-2.19.58h-29.48c-.32-5.16-.6-10.31-.97-15.46-.44-6.05-1.03-12.09-1.43-18.14-.27-4.03-.3-8.07-.48-12.1-.06-1.34-.49-2.33-2.19-2.31-5.49.06-10.98-.03-16.47.09-.68.02-1.8.91-1.92,1.55-.53,2.71-.81,5.47-1.09,8.22-.39,3.75-.63,7.51-1.05,11.25-.6,5.42-1.27,10.84-1.95,16.25-.44,3.55-.95,7.1-1.42,10.65h-27.48ZM460.42,145.21c10.68,0,21.15-.03,31.62.08.49,0,1.36,1.12,1.41,1.77,1.08,14.33,2.13,28.66,3.03,43.01.14,2.28.86,3.04,3.11,2.98,5.57-.15,11.15-.13,16.73-.15,5.62-.03,5.59-.01,5.09-5.69-1.39-15.97-2.79-31.94-4.12-47.92-1.11-13.33-2.11-26.67-3.21-40-1.08-13.16-2.26-26.32-3.35-39.48-1.35-16.39-2.69-32.79-3.94-49.19-.17-2.19-.88-2.93-3.16-2.92-16.9.09-33.8.1-50.7,0-2.42-.01-3.1.85-3.31,3.11-1.31,13.98-2.71,27.95-4.15,41.91-2.28,22.14-4.62,44.28-6.92,66.42-2.43,23.47-4.84,46.93-7.27,70.4-.3,2.92-.14,3.22,2.78,3.29,5.41.13,10.82.19,16.23.15,4.79-.04,4.58,1.1,5.26-4.79,1.62-14.19,3.22-28.38,4.87-42.98Z"/>
  <path class="cls-1" d="M208.84,200c.03-1.16.07-2.32.07-3.49,0-64.24,0-128.48,0-192.73q0-3.25,3.28-3.25c22.81,0,45.62.12,68.42-.12,3.77-.04,6.44,1.19,8.89,3.62,4.55,4.51,9.1,9.02,13.56,13.61.6.62,1.04,1.69,1.04,2.56.07,23.52.1,47.04.02,70.56,0,1.24-.75,2.61-1.5,3.68-.84,1.21-2.05,2.17-3.15,3.18-1.03.94-1.12,1.92.02,2.67,3.59,2.39,3.77,5.85,3.75,9.75-.14,22.77-.09,45.54-.03,68.31,0,2.04-.53,3.47-2.02,4.97-5.42,5.45-10.63,11.1-15.93,16.67h-76.44ZM288.47,99.53c2.66-2.91,5.02-5.35,7.2-7.96.73-.88,1.37-2.17,1.38-3.28.15-21.61.21-43.22.23-64.83,0-.89-.37-2.03-.98-2.65-4.04-4.07-8.16-8.07-12.34-11.99-.65-.61-1.75-1.02-2.64-1.03-21.06-.06-42.13-.03-63.19-.06-1.61,0-2.31.6-2.22,2.19.05.83,0,1.66,0,2.49,0,58.69,0,117.38,0,176.06,0,.75.05,1.5,0,2.24-.12,1.75.73,2.3,2.4,2.3,20.65-.03,41.3,0,61.94-.06.91,0,2.06-.34,2.68-.96,4.01-3.99,7.95-8.04,11.78-12.2.75-.81,1.26-2.18,1.26-3.29.07-22.61.08-45.22-.01-67.83,0-1.15-.7-2.51-1.5-3.4-1.77-1.97-3.8-3.7-5.98-5.76Z"/>
  <path class="cls-1" d="M120.91,200c-2.7-2.82-5.37-5.67-8.12-8.44-2.26-2.27-4.58-4.48-6.97-6.61-2.41-2.15-3.92-4.31-3.9-7.97.16-49.38.11-98.76.09-148.14,0-2.21-.36-4.43-.37-6.64,0-.82.33-1.83.87-2.43,4.12-4.56,8.33-9.04,12.5-13.56.38-.41.66-.92,1.02-1.36,2.12-2.57,4.19-4.51,8.17-4.45,17.56.28,35.13.15,52.7.09,1.86,0,2.91.61,4.01,2.15,1.66,2.33,3.8,4.33,5.74,6.46,3.27,3.59,6.58,7.16,9.78,10.81.52.6.83,1.59.83,2.4.04,52.46.04,104.91-.02,157.37,0,.93-.54,2.06-1.2,2.74-3.58,3.71-7.3,7.29-10.92,10.96-2.13,2.16-4.18,4.4-6.26,6.61h-57.95ZM190.07,100.88c0-25.02.02-50.04-.05-75.06,0-1.3-.36-2.9-1.16-3.85-3.64-4.32-7.45-8.51-11.34-12.6-.81-.85-2.24-1.55-3.38-1.56-16.4-.1-32.8-.1-49.2,0-1.15,0-2.59.68-3.41,1.52-3.87,4.01-7.63,8.12-11.27,12.34-.83.96-1.42,2.49-1.42,3.75-.07,50.04-.07,100.08.01,150.12,0,1.39.74,3.09,1.7,4.12,3.75,4.01,7.65,7.87,11.66,11.62.97.91,2.56,1.64,3.86,1.65,15.82.11,31.64.11,47.45,0,1.3,0,2.88-.75,3.85-1.67,3.63-3.41,7.01-7.1,10.61-10.56,1.49-1.43,2.14-2.91,2.13-5.01-.07-24.94-.04-49.87-.04-74.81Z"/>
  <path class="cls-2" d="M461.14,200c.48-3.55.98-7.09,1.42-10.65.68-5.41,1.35-10.83,1.95-16.25.41-3.74.66-7.5,1.05-11.25.28-2.75.56-5.51,1.09-8.22.13-.64,1.24-1.54,1.92-1.55,5.49-.13,10.98-.03,16.47-.09,1.7-.02,2.13.97,2.19,2.31.18,4.03.22,8.07.48,12.1.4,6.05.99,12.09,1.43,18.14.37,5.15.65,10.31.97,15.46h-28.98Z"/>
  <path class="cls-2" d="M355.22,200c-.03-2.74-.1-5.48-.1-8.21,0-23.16,0-46.32,0-69.49,0-.97,0-1.95,0-3.04h3.51c1.23,8.48,2.39,16.92,3.68,25.34.88,5.77,1.99,11.51,2.88,17.29.94,6.11,1.69,12.25,2.62,18.36.71,4.65,1.6,9.28,2.33,13.93.3,1.92.39,3.88.57,5.83h-15.49Z"/>
  <path class="cls-2" d="M0,181.54c2.07,2.12,4.13,4.26,6.22,6.36,3.4,3.41,6.84,6.79,10.24,10.21.57.57,1.02,1.26,1.53,1.89H0C0,193.85,0,187.7,0,181.54Z"/>
  <path class="cls-2" d="M628.61,139.19c0,11.8-.03,23.61.03,35.41,0,1.87-.46,3.3-1.84,4.64-4.19,4.04-8.21,8.26-12.43,12.27-.85.81-2.3,1.42-3.47,1.42-16.23-.02-32.46-.15-48.69-.35-1.1-.01-2.46-.58-3.25-1.35-4.04-3.95-7.98-8.01-11.85-12.13-.66-.71-1.16-1.87-1.18-2.83-.12-5.07,0-10.14-.09-15.21-.04-2,.76-2.57,2.67-2.55,6.49.08,12.99.11,19.48,0,2.17-.04,2.65.84,2.64,2.8-.03,5.34.04,5.34,5.44,5.34,7.91,0,15.82-.06,23.73.04,2.17.03,2.88-.66,2.87-2.85-.07-16.79-.07-33.59,0-50.38,0-2.07-.65-2.71-2.71-2.69-12.49.08-24.98,0-37.47.08-2.09.01-3.67-.6-5.12-2.01-3.28-3.19-6.69-6.24-9.89-9.5-.83-.84-1.54-2.25-1.54-3.39-.09-23.53-.09-47.05-.01-70.58,0-1.1.57-2.46,1.33-3.27,4.1-4.37,8.28-8.66,12.58-12.82.89-.86,2.45-1.46,3.7-1.47,16.57-.1,33.14-.09,49.71,0,1.17,0,2.61.61,3.44,1.42,3.63,3.54,7.13,7.22,10.54,10.97.75.83,1.28,2.17,1.31,3.29.14,4.98.02,9.97.09,14.96.03,1.8-.59,2.51-2.46,2.49-6.58-.08-13.16-.08-19.73,0-1.88.02-2.42-.71-2.45-2.5-.1-5.64-.16-5.64-5.94-5.64-7.74,0-15.49.08-23.23-.04-2.34-.04-2.98.8-2.97,3.03.07,15.88.08,31.76,0,47.63-.01,2.24.75,2.78,2.89,2.77,12.24-.09,24.48-.01,36.72-.08,1.82,0,3.12.55,4.37,1.85,3.58,3.71,7.38,7.21,10.87,11,1.01,1.09,1.81,2.85,1.83,4.31.14,11.97.08,23.94.08,35.91Z"/>
  <path class="cls-2" d="M323.04,100.34c0-29.68,0-59.36,0-89.04,0-3.55,0-3.56,3.55-3.56,20.73,0,41.47.02,62.2-.04,1.89,0,3.31.5,4.63,1.86,3.49,3.57,7.13,6.99,10.61,10.57.66.68,1.18,1.83,1.18,2.76.03,23.61-.04,47.22-.02,70.83,0,2.06-.51,3.63-1.99,5.09-3.67,3.62-7.14,7.43-10.84,11.02-1.35,1.31-1.81,2.61-1.52,4.41,1.9,11.89,3.77,23.79,5.62,35.69,2.08,13.29,4.14,26.59,6.19,39.89.45,2.94.23,3.16-2.72,3.17-6.74.01-13.49-.05-20.23.04-1.99.02-2.89-.46-3.21-2.67-3.73-25.05-7.61-50.08-11.36-75.14-.36-2.44-1.24-3.39-3.78-3.21-3.06.23-6.16.05-9.24.05q-3.83,0-3.83,3.71c0,24.44,0,48.88,0,73.33q0,3.88-3.98,3.89c-6,0-11.99,0-17.99,0-3.26,0-3.27-.02-3.27-3.37,0-29.76,0-59.53,0-89.29ZM380.2,60.07c0-7.89-.06-15.79.04-23.68.02-1.96-.58-2.57-2.55-2.55-8.74.09-17.48.09-26.21,0-1.95-.02-2.57.57-2.56,2.54.07,15.87.06,31.74,0,47.61,0,1.96.6,2.59,2.57,2.57,8.74-.09,17.48-.09,26.21,0,1.97.02,2.56-.62,2.54-2.57-.09-7.98-.04-15.95-.04-23.93Z"/>
  <path class="cls-2" d="M7.02,100.73c0-24.94.03-49.87-.05-74.81,0-2.48.77-4.18,2.61-5.81,3.79-3.37,7.4-6.93,11.02-10.48,1.32-1.3,2.7-1.94,4.62-1.93,16.4.07,32.8,0,49.2.11,1.31,0,2.9.71,3.87,1.62,3.14,2.96,6.01,6.2,9.06,9.26,1.24,1.24,1.91,2.51,1.87,4.37-.13,5.57-.1,11.14-.02,16.71.02,1.69-.48,2.36-2.26,2.33-6.24-.08-12.49-.08-18.73,0-1.88.03-2.53-.7-2.43-2.5.09-1.66.18-3.35-.08-4.97-.11-.68-1.1-1.73-1.7-1.74-9.91-.11-19.81-.11-29.72,0-.6,0-1.35,1.06-1.73,1.78-.28.52-.07,1.3-.07,1.97,0,42.31,0,84.61,0,126.92q0,3.77,3.83,3.77c8.07,0,16.15,0,24.22,0q3.71,0,3.71-3.58c0-3.91.07-7.81-.03-11.72-.05-1.77.4-2.53,2.35-2.5,6.74.1,13.49.09,20.23,0,1.89-.03,2.42.64,2.4,2.46-.08,8.39,0,16.79-.09,25.18-.01,1.04-.52,2.28-1.22,3.06-3.44,3.84-6.95,7.62-10.59,11.26-.83.82-2.29,1.43-3.46,1.43-16.9.09-33.8.09-50.7,0-1.11,0-2.47-.55-3.26-1.32-3.82-3.7-7.61-7.45-11.14-11.42-1.03-1.15-1.64-3.09-1.64-4.67-.1-24.93-.07-49.87-.07-74.81Z"/>
  <path class="cls-2" d="M460.42,145.21c-1.65,14.6-3.25,28.79-4.87,42.98-.67,5.89-.47,4.76-5.26,4.79-5.41.04-10.82-.02-16.23-.15-2.92-.07-3.08-.37-2.78-3.29,2.42-23.47,4.83-46.94,7.27-70.4,2.3-22.14,4.64-44.28,6.92-66.42,1.44-13.97,2.84-27.93,4.15-41.91.21-2.26.89-3.13,3.31-3.11,16.9.1,33.8.09,50.7,0,2.28-.01,2.99.73,3.16,2.92,1.25,16.4,2.59,32.8,3.94,49.19,1.09,13.16,2.26,26.32,3.35,39.48,1.1,13.33,2.09,26.67,3.21,40,1.33,15.98,2.73,31.95,4.12,47.92.5,5.67.53,5.66-5.09,5.69-5.58.03-11.16,0-16.73.15-2.25.06-2.96-.7-3.11-2.98-.9-14.34-1.94-28.68-3.03-43.01-.05-.65-.91-1.77-1.41-1.77-10.47-.1-20.94-.08-31.62-.08ZM463.51,120.18c8.65,0,16.86.03,25.07-.07.47,0,1.16-.92,1.33-1.53.21-.76.03-1.65-.03-2.47-1.42-20.63-2.85-41.26-4.25-61.89-.45-6.63-.77-13.27-1.28-19.89-.06-.82-.91-2.24-1.46-2.27-3.62-.2-7.27-.11-11.05-.11-2.79,29.59-5.56,58.89-8.33,88.22Z"/>
  <path class="cls-2" d="M288.47,99.53c2.18,2.07,4.21,3.79,5.98,5.76.8.89,1.5,2.25,1.5,3.4.09,22.61.08,45.22.01,67.83,0,1.11-.51,2.47-1.26,3.29-3.83,4.16-7.77,8.21-11.78,12.2-.61.61-1.77.95-2.68.96-20.65.05-41.3.03-61.94.06-1.67,0-2.52-.55-2.4-2.3.05-.74,0-1.5,0-2.24,0-58.69,0-117.38,0-176.06,0-.83.05-1.66,0-2.49-.09-1.59.61-2.2,2.22-2.19,21.06.03,42.13,0,63.19.06.89,0,2,.42,2.64,1.03,4.18,3.93,8.3,7.92,12.34,11.99.61.62.98,1.75.98,2.65-.02,21.61-.08,43.22-.23,64.83,0,1.11-.65,2.4-1.38,3.28-2.17,2.61-4.54,5.05-7.2,7.96ZM269.4,140.09c0-8.39-.04-16.77.03-25.16.02-1.93-.59-2.6-2.57-2.57-8.15.09-16.3.11-24.45-.01-2.28-.04-2.79.79-2.78,2.89.07,16.44.07,32.88,0,49.31,0,2.17.63,2.87,2.84,2.84,7.98-.11,15.97-.14,23.95.01,2.5.05,3.07-.83,3.03-3.15-.12-8.05-.05-16.11-.05-24.16ZM239.68,59.33c0,7.89.06,15.79-.04,23.68-.03,2.08.69,2.71,2.74,2.69,8.16-.09,16.31-.09,24.47,0,1.97.02,2.59-.62,2.59-2.57-.06-15.87-.06-31.74,0-47.62,0-2.05-.66-2.76-2.72-2.74-8.07.08-16.15.1-24.22,0-2.2-.03-2.88.72-2.85,2.88.1,7.89.04,15.79.04,23.68Z"/>
  <path class="cls-2" d="M190.07,100.88c0,24.94-.02,49.87.04,74.81,0,2.1-.64,3.58-2.13,5.01-3.6,3.45-6.97,7.14-10.61,10.56-.97.91-2.55,1.66-3.85,1.67-15.82.11-31.64.11-47.45,0-1.31,0-2.89-.74-3.86-1.65-4.01-3.75-7.91-7.61-11.66-11.62-.96-1.03-1.7-2.73-1.7-4.12-.09-50.04-.08-100.08-.01-150.12,0-1.27.59-2.79,1.42-3.75,3.64-4.22,7.4-8.33,11.27-12.34.81-.84,2.25-1.51,3.41-1.52,16.4-.1,32.8-.1,49.2,0,1.15,0,2.58.71,3.38,1.56,3.89,4.1,7.69,8.29,11.34,12.6.8.95,1.16,2.55,1.16,3.85.07,25.02.05,50.04.05,75.06ZM164.71,166.2c.05-.93.14-1.67.14-2.4,0-42.29,0-84.59.04-126.88,0-1.9-.48-2.61-2.5-2.59-8.4.1-16.81.11-25.21,0-2.24-.03-2.8.72-2.8,2.86.05,42.13.05,84.25,0,126.38,0,2.16.61,2.88,2.83,2.85,8.32-.11,16.64-.04,24.97-.05.81,0,1.62-.1,2.55-.17Z"/>
  <path class="cls-1" d="M380.2,60.07c0,7.98-.05,15.95.04,23.93.02,1.95-.57,2.58-2.54,2.57-8.74-.09-17.48-.09-26.21,0-1.97.02-2.58-.62-2.57-2.57.06-15.87.07-31.74,0-47.61,0-1.97.61-2.56,2.56-2.54,8.74.09,17.48.09,26.21,0,1.97-.02,2.57.59,2.55,2.55-.09,7.89-.04,15.79-.04,23.68ZM356.34,40.9v38.29h16.74v-38.29h-16.74Z"/>
  <path class="cls-1" d="M463.51,120.18c2.77-29.34,5.54-58.63,8.33-88.22,3.79,0,7.43-.1,11.05.11.55.03,1.39,1.44,1.46,2.27.51,6.62.83,13.26,1.28,19.89,1.4,20.63,2.83,41.26,4.25,61.89.06.83.25,1.71.03,2.47-.17.61-.86,1.52-1.33,1.53-8.21.09-16.42.07-25.07.07ZM482.33,113.02c-.21-5.14-.39-10.04-.6-14.94-.15-3.37-.24-6.74-.51-10.1-.62-7.83-1.4-15.65-1.99-23.49-.31-4.1-.28-8.23-.51-12.35-.16-2.84-.5-5.68-.76-8.51h-.16c-2.2,23.13-4.39,46.27-6.59,69.39h11.12Z"/>
  <path class="cls-1" d="M269.4,140.09c0,8.05-.07,16.11.05,24.16.04,2.32-.53,3.2-3.03,3.15-7.98-.15-15.97-.13-23.95-.01-2.2.03-2.85-.67-2.84-2.84.08-16.44.07-32.88,0-49.31,0-2.1.5-2.92,2.78-2.89,8.15.13,16.3.1,24.45.01,1.98-.02,2.59.64,2.57,2.57-.08,8.38-.03,16.77-.03,25.16ZM262.21,160.06v-40.86h-15.28v40.86h15.28Z"/>
  <path class="cls-1" d="M239.68,59.33c0-7.89.06-15.79-.04-23.68-.03-2.16.65-2.91,2.85-2.88,8.07.1,16.15.09,24.22,0,2.06-.02,2.73.69,2.72,2.74-.06,15.87-.06,31.74,0,47.62,0,1.95-.62,2.59-2.59,2.57-8.16-.09-16.31-.09-24.47,0-2.05.02-2.76-.6-2.74-2.69.1-7.89.04-15.79.04-23.68ZM246.89,39.9v38.98c4.29,0,8.43-.12,12.56.05,2.35.1,2.97-.73,2.95-3-.1-11.21-.05-22.41-.05-33.62v-2.41h-15.47Z"/>
  <path class="cls-1" d="M164.71,166.2c-.93.06-1.74.17-2.55.17-8.32.01-16.64-.06-24.97.05-2.22.03-2.83-.69-2.83-2.85.05-42.13.05-84.25,0-126.38,0-2.14.55-2.89,2.8-2.86,8.4.12,16.81.11,25.21,0,2.02-.02,2.51.69,2.5,2.59-.04,42.29-.03,84.59-.04,126.88,0,.73-.08,1.46-.14,2.4ZM141.48,41.4v117.61h16.28V41.4h-16.28Z"/>
  <path class="cls-2" d="M356.34,40.9h16.74v38.29h-16.74v-38.29Z"/>
  <path class="cls-2" d="M482.33,113.02h-11.12c2.2-23.12,4.39-46.26,6.59-69.4h.16c.26,2.84.6,5.68.76,8.52.23,4.11.2,8.24.51,12.35.59,7.83,1.37,15.65,1.99,23.49.27,3.36.37,6.73.51,10.1.21,4.9.4,9.8.6,14.94Z"/>
  <path class="cls-2" d="M262.21,160.06h-15.28v-40.86h15.28v40.86Z"/>
  <path class="cls-2" d="M246.89,39.9h15.47v2.41c0,11.21-.06,22.41.05,33.62.02,2.27-.6,3.1-2.95,3-4.13-.17-8.27-.05-12.56-.05v-38.98Z"/>
  <path class="cls-2" d="M141.48,41.4h16.28v117.61h-16.28V41.4Z"/>
</svg>