<?xml version="1.0" encoding="UTF-8"?>
<svg id="Layer_1" data-name="Layer 1" xmlns="http://www.w3.org/2000/svg" viewBox="0 0 48 99">
  <defs>
    <style>
      .cls-1 {
        fill: #fdfdfd;
      }

      .cls-1, .cls-2, .cls-3, .cls-4, .cls-5, .cls-6, .cls-7, .cls-8 {
        stroke-width: 0px;
      }

      .cls-2 {
        fill: #f9f5f4;
      }

      .cls-3 {
        fill: #cc3f1b;
      }

      .cls-4 {
        fill: #faf7f6;
      }

      .cls-5 {
        fill: #fefcfc;
      }

      .cls-6 {
        fill: #a24229;
      }

      .cls-7 {
        fill: #d85330;
      }

      .cls-8 {
        fill: #d79180;
      }
    </style>
  </defs>
  <path class="cls-7" d="M48,23c-5.84.49-11.67.99-17.38,1.47-1.56-5.44-5.64-6.53-10.99-3.54-.2,1.79-.56,3.58-.57,5.37-.05,14.81-.05,29.61,0,44.42,0,2.46.37,4.91.56,7.37,3.01.29,6.02.57,9.03.86.75-2.17,1.5-4.34,2.39-6.94h16.95v18c-2.67,3-5.33,6-8,9H9c-3-3-6-6-9-9C0,63,0,36,0,9,3.25,6.31,6.5,3.63,9.75.94c10.11.02,20.23.03,30.34.05,2.64,2.67,5.27,5.34,7.91,8.01v14ZM43.43,21.07c3.04-10.06-1.46-18.7-12.7-17.25-4.75.61-9.64.1-14.47.1-7.17,0-12.4,5.13-12.4,12.18,0,22.14,0,44.27,0,66.41,0,8.79,4.08,12.86,12.89,12.86,5.99,0,11.99.19,17.97-.11,1.9-.1,3.95-1.23,5.54-2.42,6.72-4.97,3.35-11.93,3.93-18.21h-11.85c-.16,2.97-.3,5.55-.43,8.01h-15.54V16.26h16.24c.93,8.4,7.25,2.41,10.82,4.81Z"/>
  <path class="cls-2" d="M9.75.94C6.5,3.63,3.25,6.31,0,9,0,6,0,3,0,0h10c-.04.32-.13.64-.25.94Z"/>
  <path class="cls-4" d="M0,90c3,3,6,6,9,9H0C0,96,0,93,0,90Z"/>
  <path class="cls-4" d="M40,99c2.67-3,5.33-6,8-9v9h-8Z"/>
  <path class="cls-1" d="M48,9c-2.64-2.67-5.27-5.34-7.91-8.01-.02-.33-.05-.66-.09-.99h8v9Z"/>
  <path class="cls-6" d="M40,0c.04.33.07.66.09.99-10.11-.02-20.23-.03-30.34-.05.12-.3.21-.61.25-.94h30Z"/>
  <path class="cls-3" d="M48,72h-16.95c-.9,2.6-1.64,4.77-2.39,6.94,0-2.46,0-4.91,0-7.94h19.34v1Z"/>
  <path class="cls-8" d="M19.63,78.08c-.2-2.45-.56-4.91-.56-7.37-.05-14.81-.05-29.61,0-44.42,0-1.79.37-3.58.57-5.37,0,19.05,0,38.1,0,57.15Z"/>
  <path class="cls-5" d="M43.43,21.07c-3.57-2.4-9.88,3.59-10.82-4.81h-16.24v66.37h15.54c.13-2.46.27-5.04.43-8.01h11.85c-.58,6.28,2.79,13.24-3.93,18.21-1.6,1.18-3.65,2.32-5.54,2.42-5.98.31-11.98.11-17.97.11-8.81,0-12.89-4.07-12.89-12.86,0-22.14,0-44.27,0-66.41,0-7.04,5.23-12.17,12.4-12.18,4.83,0,9.72.51,14.47-.1,11.24-1.44,15.74,7.19,12.7,17.25Z"/>
</svg>